<?xml version="1.0" encoding="UTF-8" standalone="no"?>
<!DOCTYPE svg PUBLIC "-//W3C//DTD SVG 1.1//EN" "http://www.w3.org/Graphics/SVG/1.1/DTD/svg11.dtd">
<svg width="100%" height="100%" viewBox="0 0 2084 2084" version="1.1" xmlns="http://www.w3.org/2000/svg" xmlns:xlink="http://www.w3.org/1999/xlink" xml:space="preserve" xmlns:serif="http://www.serif.com/" style="fill-rule:evenodd;clip-rule:evenodd;stroke-linejoin:round;stroke-miterlimit:2;">
    <g transform="matrix(1,0,0,1,-4610.23,0)">
        <g id="Artboard3" transform="matrix(1,0,0,1,4610.23,0)">
            <rect x="0" y="0" width="2083.33" height="2083.33" style="fill:none;"/>
            <g transform="matrix(4.16667,0,0,4.16667,79.6182,0)">
                <path d="M88.902,321.919C48.014,289.937 21.075,242.353 41.799,188.925C73.887,106.198 171.735,64.938 255,60.822C290.638,59.06 301.375,72.521 317.222,101.648C335.943,136.06 388.791,131.785 418.385,155.092C440.706,172.671 451.171,203.943 451.447,231.789C452.118,299.376 396.185,347.47 335.339,363.35C278.593,378.161 215.811,373.64 159.736,357.913C135.527,351.123 110.304,338.658 88.902,321.919Z" style="fill:rgb(251,223,199);fill-rule:nonzero;"/>
            </g>
            <g transform="matrix(4.16667,0,0,4.16667,-11.8959,1.13687e-12)">
                <path d="M252.855,421.524C132.65,421.524 35.204,416.356 35.204,409.981C35.204,403.606 132.65,398.439 252.855,398.439C373.06,398.439 470.506,403.606 470.506,409.981C470.506,416.356 373.06,421.524 252.855,421.524Z" style="fill:rgb(197,199,199);fill-rule:nonzero;"/>
            </g>
            <g transform="matrix(1,0,0,1,-44.2281,13.2576)">
                <g transform="matrix(0.991783,0,0,0.991783,106.127,-16.3781)">
                    <path d="M638.225,910.389C639.587,910.983 641.023,911.327 642.496,911.543C642,908.275 642.532,904.303 645.603,900.021C644.366,898.427 643.128,896.827 641.896,895.227C639.303,898.647 636.271,904.299 638.225,910.389Z" style="fill:rgb(247,204,127);fill-rule:nonzero;"/>
                </g>
                <g transform="matrix(0.991783,0,0,0.991783,106.127,-16.3781)">
                    <path d="M666.349,915.73C661.474,909.139 656.24,902.236 651.052,895.378C650.685,895.547 650.446,895.668 650.497,895.644C648.506,896.848 648.307,897.087 648.318,897.078C647.039,898.105 646.264,899.132 646.272,899.121C646.033,899.423 645.817,899.722 645.603,900.021C651.333,907.409 657.049,914.684 662.24,921.365C663.923,919.721 665.31,917.793 666.349,915.73Z" style="fill:rgb(247,204,127);fill-rule:nonzero;"/>
                </g>
                <g transform="matrix(0.991783,0,0,0.991783,106.127,-16.3781)">
                    <path d="M683.167,950.967C683.142,950.905 686.444,957.931 682.872,961.98C682.872,961.98 678.914,966.728 675.72,960.461C675.729,960.473 675.407,960.039 675.398,960.027C674.703,959.094 673.388,958.863 672.374,959.526C671.307,960.225 671.178,961.537 671.639,962.708C671.892,963.353 672.405,964.344 673.741,965.438C681.542,971.825 691.034,963.697 689.922,954.408C689.269,948.641 681.539,936.662 671.295,922.49C669.958,924.215 668.479,925.856 666.874,927.357C675.404,938.457 681.789,947.225 683.167,950.967Z" style="fill:rgb(247,204,127);fill-rule:nonzero;"/>
                </g>
                <g transform="matrix(0.991783,0,0,0.991783,106.127,-16.3781)">
                    <path d="M662.24,921.365C663.84,923.424 665.389,925.425 666.874,927.357C668.479,925.856 669.958,924.215 671.295,922.49C669.702,920.285 668.047,918.026 666.349,915.73C665.31,917.793 663.923,919.721 662.24,921.365Z" style="fill:rgb(247,204,127);fill-rule:nonzero;"/>
                </g>
                <g transform="matrix(0.991783,0,0,0.991783,106.127,-16.3781)">
                    <path d="M641.896,895.227C643.49,893.124 644.916,891.863 644.913,891.866C645.642,891.242 646.384,890.689 647.135,890.193C642.668,884.271 638.314,878.451 634.342,872.97C633.333,876.161 632.504,879.16 631.831,881.978C635.077,886.328 638.468,890.778 641.896,895.227Z" style="fill:rgb(247,204,127);fill-rule:nonzero;"/>
                </g>
                <g transform="matrix(0.991783,0,0,0.991783,106.127,-16.3781)">
                    <path d="M625.193,872.922C627.307,875.866 629.531,878.895 631.831,881.978C632.504,879.16 633.333,876.161 634.342,872.97C632.071,869.839 629.925,866.817 627.953,863.95C627.121,866.96 626.171,869.945 625.193,872.922Z" style="fill:rgb(247,204,127);fill-rule:nonzero;"/>
                </g>
                <g transform="matrix(0.991783,0,0,0.991783,106.127,-16.3781)">
                    <path d="M639.733,924.083C636.701,922.523 624.238,913.793 631.831,881.978C629.531,878.895 627.307,875.866 625.193,872.922C624.039,876.436 622.858,879.942 621.819,883.473C619.309,892.004 617.176,901.109 618.415,909.865C620.029,921.262 628.306,929.583 638.558,933.561C643.892,935.63 649.959,936.207 655.629,934.303C659.802,932.9 663.597,930.421 666.874,927.357C665.389,925.425 663.84,923.424 662.24,921.365C657.024,926.462 648.981,928.839 639.733,924.083Z" style="fill:rgb(247,204,127);fill-rule:nonzero;"/>
                </g>
                <g transform="matrix(0.991783,0,0,0.991783,106.127,-16.3781)">
                    <path d="M627.813,831.723C620.724,827.994 605.704,827.65 606.952,840.782C607.516,846.72 615.055,858.806 625.193,872.922C626.171,869.945 627.121,866.96 627.953,863.95C617.852,849.266 612.315,838.628 618.04,837.938C621.437,837.528 625.687,839.246 628.284,843.293C631.057,847.613 630.364,853.433 629.325,858.389C628.934,860.256 628.462,862.107 627.953,863.95C629.925,866.817 632.071,869.839 634.342,872.97C634.775,871.596 635.24,870.189 635.741,868.742C638.895,859.649 639.392,848.553 637.104,842.537C637.109,842.552 634.733,835.362 627.813,831.723Z" style="fill:rgb(247,204,127);fill-rule:nonzero;"/>
                </g>
                <g transform="matrix(0.991783,0,0,0.991783,106.127,-16.3781)">
                    <path d="M653.188,894.575C652.797,894.678 655.929,893.682 658.794,894.16C657.615,894.003 664.845,893.945 667.729,902.193C669.189,906.372 668.553,911.354 666.349,915.73C668.047,918.026 669.702,920.285 671.295,922.49C671.511,922.213 671.725,921.935 671.932,921.653C687.188,900.968 664.552,878.69 647.135,890.193C648.433,891.915 649.741,893.645 651.052,895.378C651.641,895.106 652.563,894.709 653.188,894.575Z" style="fill:rgb(247,204,127);fill-rule:nonzero;"/>
                </g>
                <g transform="matrix(0.991783,0,0,0.991783,106.127,-16.3781)">
                    <path d="M641.896,895.227C643.128,896.827 644.366,898.427 645.603,900.021C645.817,899.722 646.033,899.423 646.272,899.121C646.264,899.132 647.039,898.105 648.318,897.078C648.307,897.087 648.506,896.848 650.497,895.644C650.446,895.668 650.685,895.547 651.052,895.378C649.741,893.645 648.433,891.915 647.135,890.193C646.384,890.689 645.642,891.242 644.913,891.866C644.916,891.863 643.49,893.124 641.896,895.227Z" style="fill:rgb(247,204,127);fill-rule:nonzero;"/>
                </g>
                <g transform="matrix(0.991783,0,0,0.991783,106.127,-16.3781)">
                    <path d="M649.199,906.313C652.312,909.645 652.911,914.142 650.538,916.358C648.166,918.575 643.72,917.672 640.607,914.341C637.496,911.01 636.896,906.513 639.269,904.296C641.641,902.079 646.087,902.982 649.199,906.313Z" style="fill:rgb(247,204,127);fill-rule:nonzero;"/>
                </g>
                <g transform="matrix(0.991783,0,0,0.991783,106.127,-16.3781)">
                    <path d="M681.137,956.311C684.249,959.642 684.849,964.139 682.476,966.356C680.104,968.572 675.657,967.669 672.545,964.338C669.433,961.007 668.833,956.51 671.206,954.293C673.579,952.077 678.024,952.98 681.137,956.311Z" style="fill:rgb(247,204,127);fill-rule:nonzero;"/>
                </g>
                <g transform="matrix(0.991783,0,0,0.991783,106.127,-16.3781)">
                    <rect x="1485.45" y="1100.89" width="134.67" height="265.24" style="fill:rgb(244,116,88);fill-rule:nonzero;"/>
                </g>
                <g transform="matrix(0.991783,0,0,0.991783,106.127,-16.3781)">
                    <path d="M1620.12,1238.16C1618.92,1238.13 1617.72,1238.11 1616.52,1238.11L1485.45,1238.11L1485.45,1366.13L1620.12,1366.13L1620.12,1238.16Z" style="fill:rgb(183,87,66);fill-rule:nonzero;"/>
                </g>
                <g transform="matrix(0.991783,0,0,0.991783,106.127,-16.3781)">
                    <path d="M1318.91,1563.72L1318.91,1405.13C1318.91,1329.04 1380.59,1267.36 1456.68,1267.36L1622.14,1267.36C1698.23,1267.36 1759.91,1329.04 1759.91,1405.13L1759.91,1563.72C1759.91,1639.8 1698.23,1701.49 1622.14,1701.49L1456.68,1701.49C1380.59,1701.49 1318.91,1639.8 1318.91,1563.72Z" style="fill:rgb(244,116,88);fill-rule:nonzero;"/>
                </g>
                <g transform="matrix(0.991783,0,0,0.991783,106.127,-16.3781)">
                    <path d="M1374.21,1550.48L1374.21,1425.24C1374.21,1367.42 1421.09,1320.54 1478.91,1320.54L1599.91,1320.54C1657.73,1320.54 1704.6,1367.42 1704.6,1425.24L1704.6,1550.48C1704.6,1608.3 1657.73,1655.17 1599.91,1655.17L1478.91,1655.17C1421.09,1655.17 1374.21,1608.3 1374.21,1550.48Z" style="fill:rgb(183,87,66);fill-rule:nonzero;"/>
                </g>
                <g transform="matrix(0.991783,0,0,0.991783,106.127,-16.3781)">
                    <path d="M1487.75,1412.71C1481.88,1412.71 1477.13,1417.46 1477.13,1423.33C1477.13,1429.19 1481.88,1433.94 1487.75,1433.94C1493.61,1433.94 1498.36,1429.19 1498.36,1423.33C1498.36,1417.46 1493.61,1412.71 1487.75,1412.71Z" style="fill:rgb(244,116,88);fill-rule:nonzero;"/>
                </g>
                <g transform="matrix(0.991783,0,0,0.991783,106.127,-16.3781)">
                    <path d="M1535.04,1412.71C1529.18,1412.71 1524.43,1417.46 1524.43,1423.33C1524.43,1429.19 1529.18,1433.94 1535.04,1433.94C1540.9,1433.94 1545.65,1429.19 1545.65,1423.33C1545.65,1417.46 1540.9,1412.71 1535.04,1412.71Z" style="fill:rgb(244,116,88);fill-rule:nonzero;"/>
                </g>
                <g transform="matrix(0.991783,0,0,0.991783,106.127,-16.3781)">
                    <path d="M1582.33,1412.71C1576.47,1412.71 1571.72,1417.46 1571.72,1423.33C1571.72,1429.19 1576.47,1433.94 1582.33,1433.94C1588.2,1433.94 1592.95,1429.19 1592.95,1423.33C1592.95,1417.46 1588.2,1412.71 1582.33,1412.71Z" style="fill:rgb(244,116,88);fill-rule:nonzero;"/>
                </g>
                <g transform="matrix(0.991783,0,0,0.991783,106.127,-16.3781)">
                    <path d="M1487.75,1451.23C1481.88,1451.23 1477.13,1455.98 1477.13,1461.84C1477.13,1467.7 1481.88,1472.46 1487.75,1472.46C1493.61,1472.46 1498.36,1467.7 1498.36,1461.84C1498.36,1455.98 1493.61,1451.23 1487.75,1451.23Z" style="fill:rgb(244,116,88);fill-rule:nonzero;"/>
                </g>
                <g transform="matrix(0.991783,0,0,0.991783,106.127,-16.3781)">
                    <path d="M1535.04,1451.23C1529.18,1451.23 1524.43,1455.98 1524.43,1461.84C1524.43,1467.7 1529.18,1472.46 1535.04,1472.46C1540.9,1472.46 1545.65,1467.7 1545.65,1461.84C1545.65,1455.98 1540.9,1451.23 1535.04,1451.23Z" style="fill:rgb(244,116,88);fill-rule:nonzero;"/>
                </g>
                <g transform="matrix(0.991783,0,0,0.991783,106.127,-16.3781)">
                    <path d="M1582.33,1451.23C1576.47,1451.23 1571.72,1455.98 1571.72,1461.84C1571.72,1467.7 1576.47,1472.46 1582.33,1472.46C1588.2,1472.46 1592.95,1467.7 1592.95,1461.84C1592.95,1455.98 1588.2,1451.23 1582.33,1451.23Z" style="fill:rgb(244,116,88);fill-rule:nonzero;"/>
                </g>
                <g transform="matrix(0.991783,0,0,0.991783,106.127,-16.3781)">
                    <path d="M1487.75,1489.74C1481.88,1489.74 1477.13,1494.5 1477.13,1500.36C1477.13,1506.22 1481.88,1510.97 1487.75,1510.97C1493.61,1510.97 1498.36,1506.22 1498.36,1500.36C1498.36,1494.5 1493.61,1489.74 1487.75,1489.74Z" style="fill:rgb(244,116,88);fill-rule:nonzero;"/>
                </g>
                <g transform="matrix(0.991783,0,0,0.991783,106.127,-16.3781)">
                    <path d="M1535.04,1489.74C1529.18,1489.74 1524.43,1494.5 1524.43,1500.36C1524.43,1506.22 1529.18,1510.97 1535.04,1510.97C1540.9,1510.97 1545.65,1506.22 1545.65,1500.36C1545.65,1494.5 1540.9,1489.74 1535.04,1489.74Z" style="fill:rgb(244,116,88);fill-rule:nonzero;"/>
                </g>
                <g transform="matrix(0.991783,0,0,0.991783,106.127,-16.3781)">
                    <path d="M1582.33,1489.74C1576.47,1489.74 1571.72,1494.5 1571.72,1500.36C1571.72,1506.22 1576.47,1510.97 1582.33,1510.97C1588.2,1510.97 1592.95,1506.22 1592.95,1500.36C1592.95,1494.5 1588.2,1489.74 1582.33,1489.74Z" style="fill:rgb(244,116,88);fill-rule:nonzero;"/>
                </g>
                <g transform="matrix(0.991783,0,0,0.991783,106.127,-16.3781)">
                    <path d="M1319.16,1697.46C1319.16,1697.46 1457.43,1702.18 1487.75,1687.81C1518.07,1673.44 1488.66,1654.45 1488.66,1654.45C1488.66,1654.45 1554.36,1638.87 1558.68,1618.37C1563,1597.87 1531.47,1601.08 1531.47,1601.08C1531.47,1601.08 1594.4,1557.1 1585.38,1543.59C1568.57,1518.44 1497.42,1562.75 1497.42,1562.75C1497.42,1562.75 1521.11,1539.19 1504.41,1530.43C1479.23,1517.24 1442.66,1580.71 1442.66,1580.71C1442.66,1580.71 1444.49,1565.35 1425.12,1564.4C1390.38,1562.71 1319.16,1697.46 1319.16,1697.46Z" style="fill:rgb(70,110,182);fill-rule:nonzero;"/>
                </g>
                <g transform="matrix(0.991783,0,0,0.991783,106.127,-16.3781)">
                    <path d="M1423.91,1553.33C1443.28,1554.28 1442.66,1580.71 1442.66,1580.71C1442.66,1580.71 1479.49,1505.72 1504.67,1518.92C1521.36,1527.67 1503.24,1559.24 1503.24,1559.24C1503.24,1559.24 1568.57,1518.44 1585.38,1543.59L1330.72,1687.81C1338.95,1672.03 1391.46,1551.75 1423.91,1553.33Z" style="fill:rgb(53,83,137);fill-rule:nonzero;"/>
                </g>
                <g transform="matrix(0.991783,0,0,0.991783,106.127,-16.3781)">
                    <path d="M1313.99,1697.49C1313.99,1697.49 1432.96,1614.71 1450.07,1578.32C1467.18,1541.93 1434.41,1544.97 1434.41,1544.97C1434.41,1544.97 1483.35,1480.52 1471.73,1458.26C1460.12,1435.99 1433.39,1462.98 1433.39,1462.98C1433.39,1462.98 1458.15,1374.35 1439.51,1368.72C1404.8,1358.24 1370.84,1470.47 1370.84,1470.47C1370.84,1470.47 1357.88,1408.38 1335.76,1412.99C1302.41,1419.95 1335.69,1511.75 1335.69,1511.75C1335.69,1511.75 1325.85,1481.85 1307.21,1495.72C1273.76,1520.6 1313.99,1697.49 1313.99,1697.49Z" style="fill:rgb(70,110,182);fill-rule:nonzero;"/>
                </g>
                <g transform="matrix(0.991783,0,0,0.991783,106.127,-16.3781)">
                    <path d="M1274.67,1497.15C1295.67,1487.21 1299.89,1466.31 1299.89,1466.31C1299.89,1466.31 1300.03,1414.4 1333.39,1407.44C1355.5,1402.83 1370.98,1444.53 1370.98,1444.53C1370.98,1444.53 1404.8,1358.24 1439.51,1368.72L1313.63,1696.1C1309.24,1675.23 1249.65,1508.98 1274.67,1497.15Z" style="fill:rgb(53,83,137);fill-rule:nonzero;"/>
                </g>
                <g transform="matrix(0.991783,0,0,0.991783,106.127,-16.3781)">
                    <path d="M748.189,1711.98C748.189,1711.98 463.635,1562.73 412.941,1484.71C362.249,1406.7 424.127,1400.33 424.127,1400.33C424.127,1400.33 291.657,1268.04 311.263,1213.35C330.868,1158.65 400.627,1212.09 400.627,1212.09C400.627,1212.09 315.969,1016.75 356.909,997.974C433.165,963.009 536.744,1171.08 536.744,1171.08C536.744,1171.08 515.083,1081 567.229,1084.6C645.868,1090.04 639.935,1293.09 639.935,1293.09C639.935,1293.09 649.851,1215.34 696.95,1241.26C781.455,1287.76 748.189,1711.98 748.189,1711.98Z" style="fill:rgb(53,83,137);fill-rule:nonzero;"/>
                </g>
                <g transform="matrix(0.991783,0,0,0.991783,106.127,-16.3781)">
                    <path d="M714.488,1210.07C677.72,1189.03 640.036,1248.62 640.036,1248.62C640.036,1248.62 645.868,1090.04 567.229,1084.61C515.083,1081 536.744,1171.08 536.744,1171.08C536.744,1171.08 433.165,963.009 356.909,997.974L748.579,1708.68C752.063,1659.46 787.325,1251.76 714.488,1210.07Z" style="fill:rgb(70,110,182);fill-rule:nonzero;"/>
                </g>
                <g transform="matrix(0.991783,0,0,0.991783,106.127,-16.3781)">
                    <path d="M745.783,1711.12C745.783,1711.12 499.07,1734.87 436.161,1705.9C373.25,1676.93 419.801,1644.57 419.801,1644.57C419.801,1644.57 283.848,1613.93 274.458,1571.71C265.069,1529.49 330.213,1535.41 330.213,1535.41C330.213,1535.41 199.305,1446.08 217.618,1417.99C251.73,1365.68 399.606,1455.51 399.606,1455.51C399.606,1455.51 350.179,1407.41 384.438,1388.96C436.104,1361.14 513.044,1491.32 513.044,1491.32C513.044,1491.32 508.915,1459.64 548.864,1457.24C620.54,1452.94 745.783,1711.12 745.783,1711.12Z" style="fill:rgb(53,83,137);fill-rule:nonzero;"/>
                </g>
                <g transform="matrix(0.991783,0,0,0.991783,106.127,-16.3781)">
                    <path d="M551.11,1434.37C511.162,1436.77 513.044,1491.32 513.044,1491.32C513.044,1491.32 435.304,1337.38 383.638,1365.2C349.378,1383.65 387.522,1448.4 387.522,1448.4C387.522,1448.4 251.73,1365.68 217.618,1417.99L746.567,1709.77C729.202,1677.4 618.061,1430.36 551.11,1434.37Z" style="fill:rgb(70,110,182);fill-rule:nonzero;"/>
                </g>
                <g transform="matrix(0.991783,0,0,0.991783,106.127,-16.3781)">
                    <path d="M1599.27,408.405L1575.36,406.474L1572.09,428.596L1548.45,427.733L1542.72,448.489L1524.92,450.737L1526.06,459.747L1549.87,456.741L1555.29,437.071L1579.89,437.968L1583.1,416.211L1604.77,417.961L1599.27,408.405Z" style="fill:rgb(244,140,127);fill-rule:nonzero;"/>
                </g>
                <g transform="matrix(0.991783,0,0,0.991783,106.127,-16.3781)">
                    <path d="M690.185,697.426L689.014,711.994L665.365,712.698L661.025,733.787L643.415,737.208L645.146,746.123L668.701,741.548L672.813,721.563L697.414,720.829L699.177,698.907L690.185,697.426Z" style="fill:rgb(244,140,127);fill-rule:nonzero;"/>
                </g>
                <g transform="matrix(0.991783,0,0,0.991783,106.127,-16.3781)">
                    <path d="M1321.13,1699.78L994.725,1699.78C977.773,1699.78 964.032,1686.04 964.032,1669.09L964.032,1031.59C964.032,1014.64 977.773,1000.9 994.725,1000.9L1321.13,1000.9C1338.08,1000.9 1351.82,1014.64 1351.82,1031.59L1351.82,1669.09C1351.82,1686.04 1338.08,1699.78 1321.13,1699.78Z" style="fill:rgb(24,70,85);fill-rule:nonzero;"/>
                </g>
                <g transform="matrix(0.991783,0,0,0.991783,106.127,-16.3781)">
                    <path d="M994.725,1675.11C991.406,1675.11 988.706,1672.41 988.706,1669.09L988.706,1031.59C988.706,1028.27 991.406,1025.57 994.725,1025.57L1321.13,1025.57C1324.44,1025.57 1327.14,1028.27 1327.14,1031.59L1327.14,1669.09C1327.14,1672.41 1324.44,1675.11 1321.13,1675.11L994.725,1675.11Z" style="fill:rgb(60,143,124);fill-rule:nonzero;"/>
                </g>
                <g transform="matrix(0.991783,0,0,0.991783,106.127,-16.3781)">
                    <path d="M1224.03,1121.5C1224.03,1154.12 1197.58,1180.57 1164.96,1180.57C1132.34,1180.57 1105.89,1154.12 1105.89,1121.5C1105.89,1088.88 1132.34,1062.43 1164.96,1062.43C1197.58,1062.43 1224.03,1088.88 1224.03,1121.5Z" style="fill:rgb(53,83,137);fill-rule:nonzero;"/>
                </g>
                <g transform="matrix(0.991783,0,0,0.991783,106.127,-16.3781)">
                    <path d="M1185.56,1121.5C1185.56,1132.88 1176.34,1142.1 1164.96,1142.1C1153.58,1142.1 1144.35,1132.88 1144.35,1121.5C1144.35,1110.12 1153.58,1100.89 1164.96,1100.89C1176.34,1100.89 1185.56,1110.12 1185.56,1121.5Z" style="fill:rgb(24,70,85);fill-rule:nonzero;"/>
                </g>
                <g transform="matrix(0.991783,0,0,0.991783,106.127,-16.3781)">
                    <path d="M1248.7,1350.34C1248.7,1396.59 1211.21,1434.08 1164.96,1434.08C1118.71,1434.08 1081.22,1396.59 1081.22,1350.34C1081.22,1304.09 1118.71,1266.6 1164.96,1266.6C1211.21,1266.6 1248.7,1304.09 1248.7,1350.34Z" style="fill:rgb(53,83,137);fill-rule:nonzero;"/>
                </g>
                <g transform="matrix(0.991783,0,0,0.991783,106.127,-16.3781)">
                    <path d="M1194.17,1350.34C1194.17,1366.47 1181.09,1379.55 1164.96,1379.55C1148.83,1379.55 1135.75,1366.47 1135.75,1350.34C1135.75,1334.21 1148.83,1321.13 1164.96,1321.13C1181.09,1321.13 1194.17,1334.21 1194.17,1350.34Z" style="fill:rgb(24,70,85);fill-rule:nonzero;"/>
                </g>
                <g transform="matrix(0.991783,0,0,0.991783,106.127,-16.3781)">
                    <path d="M1241.66,1564.26C1241.66,1610.5 1204.17,1648 1157.92,1648C1111.68,1648 1074.19,1610.5 1074.19,1564.26C1074.19,1518.01 1111.68,1480.52 1157.92,1480.52C1204.17,1480.52 1241.66,1518.01 1241.66,1564.26Z" style="fill:rgb(53,83,137);fill-rule:nonzero;"/>
                </g>
                <g transform="matrix(0.991783,0,0,0.991783,106.127,-16.3781)">
                    <path d="M1187.14,1564.26C1187.14,1580.39 1174.06,1593.47 1157.92,1593.47C1141.79,1593.47 1128.71,1580.39 1128.71,1564.26C1128.71,1548.12 1141.79,1535.04 1157.92,1535.04C1174.06,1535.04 1187.14,1548.12 1187.14,1564.26Z" style="fill:rgb(24,70,85);fill-rule:nonzero;"/>
                </g>
                <g transform="matrix(0.991783,0,0,0.991783,106.127,-16.3781)">
                    <path d="M907.062,923.409L926.138,925.357C927.11,925.456 927.97,926.019 928.438,926.862L937.621,943.416C938.799,945.539 941.942,945.413 942.94,943.202L950.719,925.967C951.115,925.089 951.926,924.459 952.886,924.282L971.737,920.811C974.156,920.366 975.005,917.388 973.175,915.771L958.905,903.172C958.179,902.531 957.819,901.578 957.945,900.626L960.413,881.927C960.729,879.528 958.111,877.813 955.981,879.026L939.384,888.475C938.539,888.956 937.506,888.997 936.624,888.585L919.297,880.5C917.074,879.463 914.607,881.381 915.121,883.746L919.133,902.185C919.337,903.124 919.058,904.102 918.387,904.8L905.211,918.502C903.521,920.26 904.614,923.16 907.062,923.409Z" style="fill:rgb(247,204,127);fill-rule:nonzero;"/>
                </g>
                <g transform="matrix(0.991783,0,0,0.991783,106.127,-16.3781)">
                    <path d="M1252.76,747.766C1252.76,747.766 1253.69,745.175 1252.94,739.53C1252.02,732.55 1249.37,722.161 1248.98,721.261C1248.27,719.633 1270.04,709.861 1270.04,709.861C1270.04,709.861 1306.11,703.699 1311.03,699.008C1315.95,694.317 1320.29,692.109 1318.27,696.608C1314.62,704.743 1305.31,717.144 1303.13,718.942C1300.94,720.742 1273.6,731.175 1273.09,731.234C1272.59,731.294 1274.86,748.995 1274.86,748.995L1252.76,747.766Z" style="fill:rgb(247,164,145);fill-rule:nonzero;"/>
                </g>
                <g transform="matrix(0.991783,0,0,0.991783,106.127,-16.3781)">
                    <path d="M1275.41,737.42C1275.41,737.42 1251.44,736.215 1251.29,738.613C1247.97,791.72 1248.4,809.092 1247.41,809.756C1244.06,812.019 1187.59,773.209 1178.8,771.275C1174.59,770.35 1170.22,771.106 1166.02,771.73C1156,773.22 1159.36,772.577 1154.09,773.466L1154.1,773.478C1153.81,773.53 1153.65,773.562 1153.65,773.562L1154.83,783.009C1167.37,791.855 1211.61,943.122 1213.78,942.761C1216.21,942.356 1268.98,949.172 1267.57,944.962C1267.34,944.278 1229.38,920.073 1214.72,880.38C1209.8,867.055 1206.42,852.479 1203.1,839.766C1215.16,844.124 1262.23,860.731 1268.94,857.003C1289.79,845.407 1275.41,737.42 1275.41,737.42Z" style="fill:rgb(53,83,137);fill-rule:nonzero;"/>
                </g>
                <g transform="matrix(0.991783,0,0,0.991783,106.127,-16.3781)">
                    <path d="M1396.18,1000.99C1396.18,1000.99 1448.29,1032.68 1450.67,1039.11C1454.09,1048.38 1496.26,1030.66 1485.5,1029.97C1483.03,1029.81 1475.04,1028.76 1474.37,1028.5C1470.74,1027.08 1422.25,980.992 1422.25,980.992L1396.18,1000.99Z" style="fill:rgb(247,164,145);fill-rule:nonzero;"/>
                </g>
                <g transform="matrix(0.991783,0,0,0.991783,106.127,-16.3781)">
                    <path d="M1505.98,1027.54L1475.24,1028.67C1475.24,1028.67 1467.4,1036.91 1450.71,1039.23C1450.71,1039.23 1448.95,1047.18 1451.28,1055.96C1451.68,1057.48 1452.49,1062.1 1454.03,1061.81C1459.61,1060.76 1474.15,1055.26 1490.82,1049.82C1490.82,1049.82 1513.19,1042.23 1525.5,1032.73C1537.81,1023.23 1505.98,1027.54 1505.98,1027.54Z" style="fill:rgb(247,204,127);fill-rule:nonzero;"/>
                </g>
                <g transform="matrix(0.991783,0,0,0.991783,106.127,-16.3781)">
                    <path d="M1171.43,932.66C1171.43,932.66 1207.04,934.384 1244.59,920.768C1288.03,905.013 1336.29,889.486 1351.76,896.184C1364.22,901.575 1450.03,1002.89 1450.03,1002.89L1424.37,1026.73L1333.6,946.522C1333.6,946.522 1235.86,996.367 1212.4,994.912C1158.99,991.597 1153.29,949.93 1171.43,932.66Z" style="fill:rgb(183,87,66);fill-rule:nonzero;"/>
                </g>
                <g transform="matrix(0.991783,0,0,0.991783,106.127,-16.3781)">
                    <path d="M1206.97,905.944L1246.83,943.315L1184.37,970.751L1171.43,932.66L1206.97,905.944Z" style="fill:rgb(183,87,66);fill-rule:nonzero;"/>
                </g>
                <g transform="matrix(0.991783,0,0,0.991783,106.127,-16.3781)">
                    <path d="M1300.47,1087.15C1300.47,1087.15 1305.19,1145.07 1305.03,1154.99C1304.88,1164.87 1334.13,1191.1 1329.63,1181.3C1328.59,1179.05 1325.72,1171.52 1325.63,1170.8C1325.16,1166.94 1326.93,1100.02 1326.93,1100.02L1300.47,1087.15Z" style="fill:rgb(247,164,145);fill-rule:nonzero;"/>
                </g>
                <g transform="matrix(0.991783,0,0,0.991783,106.127,-16.3781)">
                    <path d="M1341.5,1198.16L1325.9,1171.66C1325.9,1171.66 1314.92,1168.66 1304.95,1155.09C1304.95,1155.09 1297.11,1157.31 1290.5,1163.54C1289.35,1164.61 1281.57,1171.86 1282.33,1173.22C1285.15,1178.26 1298.1,1188.23 1312.27,1199.11C1312.27,1199.11 1331.99,1211.49 1346.2,1217.81C1360.41,1224.13 1341.5,1198.16 1341.5,1198.16Z" style="fill:rgb(247,204,127);fill-rule:nonzero;"/>
                </g>
                <g transform="matrix(0.991783,0,0,0.991783,106.127,-16.3781)">
                    <path d="M1343.57,966.748C1329.43,951.917 1229.06,948.146 1229.06,948.146L1195.32,898.599L1139.01,943.274C1139.01,943.274 1150.82,990.898 1156.91,1003.28C1165.03,1019.77 1205.96,1015.8 1230.87,1012.58C1253.79,1009.63 1296.25,1009.33 1296.25,1009.33L1296.92,1136.07C1296.92,1136.07 1325.53,1139.1 1333.24,1137.15C1334.11,1136.93 1361.16,985.197 1343.57,966.748Z" style="fill:rgb(244,116,88);fill-rule:nonzero;"/>
                </g>
                <g transform="matrix(0.991783,0,0,0.991783,106.127,-16.3781)">
                    <path d="M1154,773.605L1119.95,779.552C1119.95,779.552 1119.19,779.921 1118.96,779.994C1116.23,780.842 1130.62,880.433 1137.54,917.446C1144.46,954.459 1151.37,969.533 1151.37,969.533C1151.37,969.533 1196.88,955.762 1210.49,948.531C1216.13,945.53 1228.34,925.914 1228.34,925.914C1228.34,925.914 1211.36,907.969 1200.19,876.872C1191.58,852.889 1179.38,810.01 1174.28,801.363C1162.58,781.502 1154,773.605 1154,773.605Z" style="fill:rgb(150,217,201);fill-rule:nonzero;"/>
                </g>
                <g transform="matrix(0.991783,0,0,0.991783,106.127,-16.3781)">
                    <path d="M1117.34,749.207L1119.95,779.587C1119.95,779.587 1146.68,815.188 1157.44,808.507C1166.47,802.902 1154.53,774.826 1154.53,774.826C1154.53,774.826 1152.08,768.354 1148.88,760.966C1146.64,755.803 1144.62,750.162 1144.21,745.896C1143.22,735.524 1117.34,749.207 1117.34,749.207Z" style="fill:rgb(247,164,145);fill-rule:nonzero;"/>
                </g>
                <g transform="matrix(0.991783,0,0,0.991783,106.127,-16.3781)">
                    <path d="M1135.65,677.034C1135.65,677.034 1148.98,692.737 1151.53,706.982C1154.08,721.228 1152.2,731.376 1152.2,731.376L1110.77,692.31L1135.65,677.034Z" style="fill:rgb(24,70,85);fill-rule:nonzero;"/>
                </g>
                <g transform="matrix(0.991783,0,0,0.991783,106.127,-16.3781)">
                    <path d="M1154.94,703.601C1156.04,708.563 1154.6,713.108 1151.72,713.752C1148.84,714.396 1145.6,710.896 1144.49,705.934C1143.39,700.972 1144.83,696.427 1147.71,695.783C1150.59,695.139 1153.83,698.639 1154.94,703.601Z" style="fill:rgb(244,140,127);fill-rule:nonzero;"/>
                </g>
                <g transform="matrix(0.991783,0,0,0.991783,106.127,-16.3781)">
                    <path d="M1099.85,700.651C1099,700.572 1104.04,742.318 1117.3,750.708C1130.57,759.099 1151.74,757.461 1156.72,746.834C1162.22,735.079 1150.53,691.849 1131.42,684.641C1112.31,677.432 1099.85,700.651 1099.85,700.651Z" style="fill:rgb(247,164,145);fill-rule:nonzero;"/>
                </g>
                <g transform="matrix(0.991783,0,0,0.991783,106.127,-16.3781)">
                    <path d="M1093.71,675.123C1085.43,684.32 1081.66,690.769 1077.12,705.913C1071.53,724.534 1088.96,741.072 1102.61,746.846C1116.27,752.62 1118.42,761.441 1118.42,761.441L1118.26,755.813C1118.3,751.423 1116.7,749.109 1115.16,746.639C1113.8,744.441 1109.35,736.883 1107.74,734.94C1103.48,729.818 1102.63,728.701 1103.78,723.217C1104.67,718.993 1102.02,710.23 1103.34,703.288L1120.12,697.532C1120.12,697.532 1130.58,693.664 1135.27,686.744C1148.76,666.871 1115.49,650.442 1093.71,675.123Z" style="fill:rgb(24,70,85);fill-rule:nonzero;"/>
                </g>
                <g transform="matrix(0.991783,0,0,0.991783,106.127,-16.3781)">
                    <path d="M1108.42,727.3C1111.08,731.63 1111.2,736.396 1108.68,737.945C1106.17,739.494 1101.97,737.239 1099.3,732.909C1096.64,728.579 1096.52,723.813 1099.04,722.263C1101.55,720.714 1105.75,722.969 1108.42,727.3Z" style="fill:rgb(247,164,145);fill-rule:nonzero;"/>
                </g>
                <g transform="matrix(0.991783,0,0,0.991783,106.127,-16.3781)">
                    <path d="M977.453,626.033C980.363,633.839 985.399,646.124 985.399,646.124C985.534,649.649 986.228,664.305 987.114,682.264L1012.05,668.678C1012.05,668.678 1008.29,639.691 1009.25,637.776C1010.06,636.157 1011.94,637.834 1018.61,625.397C1020.53,621.808 1020.26,615.834 1020.26,615.834C1020.26,615.834 1019.87,608.487 1018.16,608.003C1016.44,607.518 1014.69,608.829 1014.25,610.159C1013.8,611.489 1014.3,614.405 1013.86,615.735C1013.42,617.065 1009.81,619.033 1008.21,619.143C1006.6,619.254 1005.85,597.556 1005.85,597.556C1005.85,597.556 1006.01,591.357 1006.23,589.31C1006.41,587.564 1007.37,582.397 1007.37,582.397C1007.37,582.397 1008.33,574.951 1006.01,574.665C1004.65,574.496 1001.98,580.771 1000.4,587.281C998.711,594.291 998.146,601.579 997.422,601.567C995.724,601.542 995.211,589.656 995.211,589.656C995.211,589.656 996.237,584.063 995.893,581.521C997.096,578.215 997.453,572.302 994.626,572.152C994.104,572.124 991.326,579.911 991.326,579.911C991.326,579.911 990.506,585.258 989.957,587.776C988.988,592.219 989.564,598.984 989.147,602.047C988.8,604.595 988.102,603.648 987.85,603.783C987.655,603.887 987.608,600.435 987.46,595.7C987.386,593.314 986.791,590.625 987.132,587.857C987.448,585.295 987.376,581.69 987.279,579.52C987.005,573.373 983.243,574.452 982.578,580.181C982.324,582.363 982.067,584.741 981.816,587.153C980.84,596.531 981.942,605.324 980.966,605.514C979.699,605.761 978.64,589.639 978.64,589.639C978.64,589.639 975.625,581.003 974.653,589.466C973.525,599.284 974.685,607.043 974.756,607.384C975.24,609.691 974.543,618.228 977.453,626.033Z" style="fill:rgb(248,164,146);fill-rule:nonzero;"/>
                </g>
                <g transform="matrix(0.991783,0,0,0.991783,106.127,-16.3781)">
                    <path d="M1119.91,779.609C1119.91,779.609 1085.78,782.037 1076.54,779.111C1070.94,777.337 1023.1,747.333 1023.1,747.333L1012.41,653.066L981.423,654.375C981.423,654.375 977.856,760.396 984.725,771.14C991.817,782.234 1061.49,823.107 1076.76,842.618C1085.57,853.858 1112.14,1006.01 1114.64,1007.22C1132.2,1013.87 1192.63,1027.18 1190.81,1022.1C1140.44,881.751 1119.91,779.609 1119.91,779.609Z" style="fill:rgb(53,83,137);fill-rule:nonzero;"/>
                </g>
                <g transform="matrix(0.991783,0,0,0.991783,106.127,-16.3781)">
                    <path d="M1264.24,721.503C1264.24,721.503 1273.21,716.332 1275.64,715.188C1278.07,714.043 1285.99,711.563 1285.99,711.563C1285.99,711.563 1297.03,697.16 1300.2,696.442C1303.37,695.725 1294.53,711.405 1294.53,711.405L1290.64,716.146C1290.64,716.146 1297.01,709.229 1298.26,708.225C1299.51,707.221 1308.32,690.601 1311.14,691.293C1313.96,691.985 1307.98,703.647 1305.12,709.806C1302.26,715.965 1286.48,721.432 1286.48,721.432L1264.24,721.503Z" style="fill:rgb(247,164,145);fill-rule:nonzero;"/>
                </g>
                <g transform="matrix(0.991783,0,0,0.991783,106.127,-16.3781)">
                    <path d="M1294.38,692.14C1294.15,691.884 1270.8,666.36 1226.16,650.647C1162.45,628.221 1053.23,652.799 1020.81,582.485C1015.03,569.936 1014.76,560.12 1014.75,559.708C1014.72,558.208 1016.99,558.161 1017.02,559.66C1017.02,559.758 1017.3,569.497 1022.92,581.634C1054.75,650.39 1162.85,625.955 1226.92,648.507C1258.97,659.789 1285.31,678.676 1296.07,690.622C1297.07,691.737 1295.38,693.255 1294.38,692.14Z" style="fill:rgb(134,177,242);fill-rule:nonzero;"/>
                </g>
                <g transform="matrix(0.991783,0,0,0.991783,106.127,-16.3781)">
                    <path d="M1293.49,680.091C1292.61,679.128 1271.4,656.344 1231.62,642.267C1188.28,626.873 1121.62,630.639 1081.56,612.709C1057.23,601.816 1045.33,586.225 1039.63,575.063C1033.44,562.924 1033.04,553.478 1033.02,553.082C1032.97,551.582 1035.24,551.5 1035.29,553.001C1035.3,553.142 1035.72,562.46 1041.71,574.141C1047.25,584.941 1058.81,600.041 1082.49,610.638C1122.14,628.385 1188.67,624.603 1232.38,640.128C1272.69,654.392 1294.27,677.577 1295.17,678.557C1295.59,679.019 1295.56,679.736 1295.1,680.16C1294.64,680.583 1293.92,680.554 1293.49,680.091Z" style="fill:rgb(134,177,242);fill-rule:nonzero;"/>
                </g>
                <g transform="matrix(0.991783,0,0,0.991783,106.127,-16.3781)">
                    <path d="M1292.6,668.034C1283.15,657.732 1263.6,643.352 1237.07,633.886C1195.2,618.869 1138.29,619.274 1102.52,604.267C1077.04,593.581 1064.48,578.482 1058.43,567.697C1051.83,555.95 1051.31,546.835 1051.29,546.454C1051.22,544.958 1053.49,544.837 1053.56,546.341C1053.57,546.43 1054.09,555.4 1060.47,566.704C1066.36,577.141 1078.58,591.767 1103.4,602.175C1121.46,609.752 1144.86,613.321 1169.63,617.099C1193.03,620.668 1217.22,624.358 1237.83,631.75C1264.75,641.354 1284.64,655.999 1294.27,666.5C1295.29,667.607 1293.62,669.141 1292.6,668.034Z" style="fill:rgb(134,177,242);fill-rule:nonzero;"/>
                </g>
                <g transform="matrix(0.991783,0,0,0.991783,106.127,-16.3781)">
                    <path d="M1291.71,655.978C1251.23,611.851 1169.24,613.612 1123.48,595.825C1096.82,585.464 1083.59,570.85 1077.19,560.415C1070.2,549.031 1069.59,540.193 1069.57,539.823C1069.47,538.325 1071.74,538.188 1071.83,539.685C1071.84,539.841 1072.49,548.476 1079.2,559.355C1085.43,569.453 1098.31,583.608 1124.3,593.71C1169.91,611.437 1252.25,609.605 1293.38,654.443C1293.8,654.906 1293.77,655.623 1293.31,656.046C1292.85,656.47 1292.13,656.439 1291.71,655.978Z" style="fill:rgb(134,177,242);fill-rule:nonzero;"/>
                </g>
                <g transform="matrix(0.991783,0,0,0.991783,106.127,-16.3781)">
                    <path d="M1115.71,566.471L1115.71,566.47C1111.96,562.554 1107.21,551.147 1104.37,544.332C1100.55,535.175 1101.01,537.054 1099.56,536.315C1096.51,535.705 1099.08,537.907 1074.77,587.613C1064.7,574.441 1035.83,577.673 1035.92,592.98C1035.96,600.895 1044.31,607.963 1055.57,607.9C1063.39,607.856 1070.42,604.273 1073.48,598.771L1073.46,598.763C1074.26,597.307 1084.83,575.716 1093.54,558.233C1096.57,569.797 1110.17,578.222 1118.66,572.623L1121.23,570.929L1118.63,569.288C1117.72,568.717 1115.85,566.616 1115.71,566.471Z" style="fill:rgb(70,110,182);fill-rule:nonzero;"/>
                </g>
                <g transform="matrix(0.991783,0,0,0.991783,106.127,-16.3781)">
                    <path d="M1272.71,613.993L1272.71,613.992C1268.09,612.671 1259.33,606.032 1254.09,602.064C1248.55,597.871 1247.97,597.432 1246.6,598.008C1243.71,598.982 1246.71,600.316 1250.27,649.066C1236.44,643.792 1215.88,658.729 1222.88,670.58C1230.28,683.117 1255.14,673.6 1254.82,658.058L1254.81,658.058C1254.77,656.583 1253.23,631.842 1252.11,614.811C1259.79,622.045 1273.83,625.869 1277.88,617.71L1279.24,614.955C1275.69,614.689 1277.21,615.304 1272.71,613.993Z" style="fill:rgb(70,110,182);fill-rule:nonzero;"/>
                </g>
                <g transform="matrix(0.991783,0,0,0.991783,106.127,-16.3781)">
                    <path d="M1197.33,614.327C1197.27,612.268 1195.77,589.803 1193.95,562.215C1164.96,565.286 1165.96,565.575 1139.25,561.324C1140.15,575.497 1141.11,589.737 1141.93,601.192C1127.89,595.836 1110.46,612.282 1117.37,623.98C1124.83,636.612 1148.24,623.363 1147.93,607.901C1147.93,607.901 1146.36,595.571 1145.02,575.901L1190.17,576.315C1190.58,582.397 1191.08,594.348 1191.94,606.021C1177.97,600.699 1158.47,615.102 1165.41,626.849C1169.23,633.316 1179.16,634.548 1187.55,629.595C1193.62,626.01 1197.47,620.017 1197.35,614.326L1197.33,614.327Z" style="fill:rgb(70,110,182);fill-rule:nonzero;"/>
                </g>
                <g transform="matrix(0.991783,0,0,0.991783,106.127,-16.3781)">
                    <path d="M1195.44,394.846C1195.66,392.797 1197.21,370.335 1199.14,342.755C1169.99,341.88 1170.94,342.301 1145.06,334.482C1144.03,348.645 1143.06,362.886 1142.33,374.347C1129.14,367.143 1109.65,381.083 1114.91,393.607C1120.59,407.131 1146.48,400.879 1148.25,385.516L1148.24,385.514C1148.39,384.101 1149.17,371.608 1150.5,351.938L1191.2,357.948C1190.79,364.03 1190.27,371.996 1189.54,383.678C1176.42,376.518 1156.84,390.363 1162.12,402.94C1165.03,409.864 1174.71,412.426 1183.69,408.652C1190.19,405.92 1194.81,400.502 1195.47,394.848L1195.44,394.846Z" style="fill:rgb(150,217,201);fill-rule:nonzero;"/>
                </g>
                <g transform="matrix(0.991783,0,0,0.991783,106.127,-16.3781)">
                    <path d="M671.926,556.575L686.952,568.764L704.688,560.119L720.563,574.976L736.616,559.942L755.311,575.951L771.799,563.931L792.304,576.393L787.587,584.153L772.256,574.836L754.857,587.52L736.887,572.132L720.566,587.416L703.047,571.022L685.727,579.464L671.8,568.167L661.585,576.09L656.018,568.913L671.926,556.575Z" style="fill:rgb(155,193,249);fill-rule:nonzero;"/>
                </g>
                <g transform="matrix(0.991783,0,0,0.991783,106.127,-16.3781)">
                    <path d="M586.628,1503.11L586.628,1388.75C586.628,1273.23 680.275,1179.58 795.796,1179.58L910.154,1179.58C1025.67,1179.58 1119.32,1273.23 1119.32,1388.75L1119.32,1503.11C1119.32,1618.63 1025.67,1712.28 910.154,1712.28L795.796,1712.28C680.275,1712.28 586.628,1618.63 586.628,1503.11Z" style="fill:rgb(183,87,66);fill-rule:nonzero;"/>
                </g>
                <g transform="matrix(0.991783,0,0,0.991783,106.127,-16.3781)">
                    <path d="M715.066,1089.68C715.7,1068.99 708.092,865.626 759.5,704.811C794.543,594.978 833.541,547.522 880.261,509.099C882.386,507.426 884.479,505.726 886.624,504.095C888.781,502.477 890.918,500.844 893.11,499.287C893.782,498.812 890.677,501.008 899.68,494.64C1052.12,388.833 1360.98,384.024 1490.62,543.786C1537.98,601.27 1569.36,693.948 1583.08,767.793C1606.98,896.128 1600.24,1036.53 1596.9,1174.72L1534.41,1174.72C1523.18,1002.93 1541.56,787.136 1462.24,628.904L1459.27,623.096C1455.75,618.994 1413.47,515.979 1276.89,466.604C1104.63,408.39 927.623,492.855 868.308,649.362C814.22,788.111 819.414,950.751 819.291,1089.68L715.066,1089.68Z" style="fill:rgb(244,116,88);fill-rule:nonzero;"/>
                </g>
                <g transform="matrix(0.991783,0,0,0.991783,106.127,-16.3781)">
                    <rect x="668.574" y="984.506" width="190.102" height="274.144" style="fill:rgb(244,116,88);fill-rule:nonzero;"/>
                </g>
                <g transform="matrix(0.991783,0,0,0.991783,106.127,-16.3781)">
                    <path d="M858.676,1141.92C844.989,1139.22 830.84,1137.8 816.361,1137.8L718.099,1137.8C701.061,1137.8 684.481,1139.76 668.574,1143.47L668.574,1258.65L858.676,1258.65L858.676,1141.92Z" style="fill:rgb(183,87,66);fill-rule:nonzero;"/>
                </g>
                <g transform="matrix(0.991783,0,0,0.991783,106.127,-16.3781)">
                    <path d="M848.006,514.936C852.43,523.218 861.596,527.024 868.677,523.427C875.867,519.775 878.176,509.883 873.833,501.333C869.49,492.783 860.141,488.813 852.95,492.465C851.074,493.418 849.54,494.803 848.36,496.47L836.941,471.916L878.837,464.574L898.363,506.564C898.388,506.612 898.405,506.662 898.43,506.711C902.773,515.26 912.123,519.23 919.313,515.578C926.503,511.926 928.812,502.034 924.47,493.484C920.127,484.935 910.777,480.964 903.586,484.617C901.715,485.567 900.183,486.947 899.003,488.61L878.091,443.637C877.415,442.184 875.959,441.328 874.624,441.599L822.445,452.174C820.702,452.526 819.904,454.61 820.787,456.507L847.965,514.953L848.006,514.936Z" style="fill:rgb(80,191,165);fill-rule:nonzero;"/>
                </g>
                <g transform="matrix(0.991783,0,0,0.991783,106.127,-16.3781)">
                    <path d="M530.207,1511.57L530.207,1380.3C530.207,1269.45 620.068,1179.58 730.918,1179.58L819.99,1179.58C930.841,1179.58 1020.7,1269.45 1020.7,1380.3L1020.7,1511.57C1020.7,1622.42 930.841,1712.28 819.99,1712.28L730.918,1712.28C620.068,1712.28 530.207,1622.42 530.207,1511.57Z" style="fill:rgb(244,116,88);fill-rule:nonzero;"/>
                </g>
                <g transform="matrix(0.991783,0,0,0.991783,106.127,-16.3781)">
                    <path d="M606.878,1452.38L606.878,1394.28C606.878,1335.59 654.456,1288.01 713.145,1288.01L771.244,1288.01C829.933,1288.01 877.51,1335.59 877.51,1394.28L877.51,1452.38C877.51,1511.06 829.933,1558.64 771.244,1558.64L713.145,1558.64C654.456,1558.64 606.878,1511.06 606.878,1452.38Z" style="fill:rgb(183,87,66);fill-rule:nonzero;"/>
                </g>
                <g transform="matrix(0.991783,0,0,0.991783,106.127,-16.3781)">
                    <path d="M556.775,1452.38L556.775,1394.28C556.775,1335.59 604.353,1288.01 663.042,1288.01L721.141,1288.01C779.83,1288.01 827.407,1335.59 827.407,1394.28L827.407,1452.38C827.407,1511.06 779.83,1558.64 721.141,1558.64L663.042,1558.64C604.353,1558.64 556.775,1511.06 556.775,1452.38Z" style="fill:rgb(244,116,88);fill-rule:nonzero;"/>
                </g>
            </g>
        </g>
    </g>
</svg>
