<?xml version="1.0" encoding="UTF-8" standalone="no"?>
<!DOCTYPE svg PUBLIC "-//W3C//DTD SVG 1.1//EN" "http://www.w3.org/Graphics/SVG/1.1/DTD/svg11.dtd">
<svg width="100%" height="100%" viewBox="0 0 2084 2084" version="1.1" xmlns="http://www.w3.org/2000/svg" xmlns:xlink="http://www.w3.org/1999/xlink" xml:space="preserve" xmlns:serif="http://www.serif.com/" style="fill-rule:evenodd;clip-rule:evenodd;stroke-linejoin:round;stroke-miterlimit:2;">
    <g transform="matrix(4.16667,0,0,4.16667,0,0)">
        <path d="M252.855,421.524C132.65,421.524 35.204,416.356 35.204,409.981C35.204,403.606 132.65,398.439 252.855,398.439C373.06,398.439 470.506,403.606 470.506,409.981C470.506,416.356 373.06,421.524 252.855,421.524Z" style="fill:rgb(197,199,199);fill-rule:nonzero;"/>
        <path d="M88.902,321.919C48.014,289.937 21.075,242.353 41.799,188.925C73.887,106.198 171.735,64.938 255,60.822C290.638,59.06 301.375,72.521 317.222,101.648C335.943,136.06 388.791,131.785 418.385,155.092C440.706,172.671 451.171,203.943 451.447,231.789C452.118,299.376 396.185,347.47 335.339,363.35C278.593,378.161 215.811,373.64 159.736,357.913C135.527,351.123 110.304,338.658 88.902,321.919Z" style="fill:rgb(120,198,188);fill-rule:nonzero;"/>
        <path d="M90.573,266.866L65.229,202.307L68.205,201.139L93.548,265.698L90.573,266.866Z" style="fill:rgb(62,44,117);fill-rule:nonzero;"/>
        <path d="M409.894,279.955L112.534,279.652L127.688,171.982L142.499,163.994L409.894,279.955Z" style="fill:white;fill-rule:nonzero;"/>
        <path d="M68.6,202.146L72.144,211.172L109.959,174.652L106.128,166.879L68.6,202.146ZM70.918,216.8L64.834,201.299L118.9,150.489L121.09,152.819L108.564,164.59L113.858,175.331L70.918,216.8Z" style="fill:rgb(62,44,117);fill-rule:nonzero;"/>
        <path d="M156.842,166.519C152.747,158.874 144.419,154.952 136.305,156.095L130.141,144.586C128.158,140.883 123.548,139.489 119.846,141.473C116.144,143.456 114.75,148.064 116.732,151.767L122.928,163.335C117.58,169.455 116.278,178.48 120.342,186.068L156.842,166.519Z" style="fill:rgb(47,50,143);fill-rule:nonzero;"/>
        <path d="M100.931,272.529L100.931,272.512L101.054,272.512L100.931,264.497L83.08,264.497L83.08,272.529L72.072,272.529L72.072,279.652L112.534,279.652L112.534,272.529L100.931,272.529Z" style="fill:rgb(47,50,143);fill-rule:nonzero;"/>
        <path d="M153.565,168.274C149.565,161.764 142.555,158.086 135.32,158.086C134.333,158.086 133.34,158.155 132.352,158.294L125.79,146.043C124.441,143.525 121.95,142.017 119.299,141.802C119.477,141.687 119.656,141.574 119.846,141.473C120.989,140.86 122.218,140.57 123.43,140.57C126.144,140.57 128.77,142.026 130.141,144.586L136.305,156.095C137.235,155.964 138.166,155.9 139.096,155.9C146.272,155.9 153.216,159.751 156.842,166.519L153.565,168.274Z" style="fill:rgb(75,76,160);fill-rule:nonzero;"/>
        <path d="M373.576,245.219L336.681,245.219C340.2,248.238 342.433,252.715 342.433,257.716C342.433,266.809 335.062,274.18 325.969,274.18L314.662,274.18C313.566,274.18 312.678,275.068 312.678,276.164C312.678,277.259 313.566,278.147 314.662,278.147L373.576,278.147C382.669,278.147 390.04,270.776 390.04,261.684C390.04,252.59 382.669,245.219 373.576,245.219Z" style="fill:rgb(220,214,235);fill-rule:nonzero;"/>
        <path d="M373.731,279.933L313.722,279.933C312.735,279.933 311.936,279.134 311.936,278.147C311.936,277.161 312.735,276.362 313.722,276.362L373.731,276.362C381.826,276.362 388.411,269.777 388.411,261.684C388.411,253.589 381.826,247.004 373.731,247.004C372.745,247.004 371.946,246.205 371.946,245.219C371.946,244.233 372.745,243.434 373.731,243.434C383.795,243.434 391.981,251.62 391.981,261.684C391.981,271.746 383.795,279.933 373.731,279.933Z" style="fill:rgb(189,187,221);fill-rule:nonzero;"/>
        <path d="M340.42,249.826L340.418,249.825C339.53,248.204 338.377,246.747 337.017,245.515C338.377,246.748 339.531,248.204 340.42,249.826Z" style="fill:rgb(102,160,152);fill-rule:nonzero;"/>
        <path d="M342.318,255.764L342.315,255.764C342.063,253.633 341.404,251.627 340.418,249.825L340.42,249.826C341.406,251.628 342.066,253.633 342.318,255.764Z" style="fill:rgb(197,199,199);fill-rule:nonzero;"/>
        <path d="M337.016,245.515C337.011,245.51 337.005,245.505 337,245.5C337.005,245.505 337.011,245.51 337.016,245.515ZM336.998,245.498C336.993,245.493 336.987,245.488 336.982,245.484C336.987,245.488 336.993,245.493 336.998,245.498ZM336.98,245.482C336.966,245.469 336.951,245.456 336.936,245.443C336.951,245.456 336.966,245.469 336.98,245.482ZM336.928,245.435C336.925,245.433 336.922,245.43 336.919,245.427C336.922,245.43 336.925,245.433 336.928,245.435ZM336.909,245.418C336.906,245.415 336.903,245.413 336.9,245.41C336.903,245.413 336.906,245.415 336.909,245.418ZM336.89,245.401C336.887,245.399 336.884,245.396 336.881,245.393C336.884,245.396 336.887,245.399 336.89,245.401ZM336.87,245.384C336.867,245.381 336.865,245.379 336.862,245.377C336.865,245.379 336.867,245.381 336.87,245.384ZM336.85,245.366C336.848,245.364 336.845,245.362 336.843,245.36C336.845,245.362 336.848,245.364 336.85,245.366ZM336.828,245.347C336.827,245.345 336.825,245.344 336.824,245.343C336.825,245.344 336.827,245.345 336.828,245.347ZM336.804,245.326C336.803,245.325 336.801,245.323 336.8,245.322C336.801,245.323 336.803,245.325 336.804,245.326ZM336.785,245.309C336.783,245.307 336.781,245.305 336.779,245.303C336.781,245.305 336.783,245.307 336.785,245.309ZM336.766,245.292C336.763,245.29 336.761,245.288 336.759,245.286C336.761,245.288 336.764,245.29 336.766,245.292ZM336.746,245.275C336.743,245.273 336.742,245.271 336.74,245.269C336.741,245.271 336.744,245.273 336.746,245.275ZM336.726,245.258C336.724,245.256 336.722,245.254 336.72,245.252C336.722,245.254 336.724,245.256 336.726,245.258ZM336.705,245.24C336.703,245.238 336.702,245.237 336.7,245.236C336.702,245.237 336.704,245.238 336.705,245.24ZM371.946,245.219C371.946,244.236 372.739,243.44 373.72,243.434C372.739,243.44 371.946,244.237 371.946,245.219ZM374.246,243.441L374.244,243.441L374.246,243.441ZM374.154,243.438L374.15,243.438L374.154,243.438ZM374.106,243.437L374.103,243.437L374.106,243.437ZM374.059,243.436L374.058,243.436L374.059,243.436ZM374.015,243.436L374.009,243.436L374.015,243.436ZM373.966,243.435L373.964,243.435L373.966,243.435ZM373.922,243.435C373.92,243.435 373.918,243.434 373.916,243.434C373.918,243.434 373.92,243.435 373.922,243.435ZM373.874,243.434L373.868,243.434L373.874,243.434ZM373.829,243.434L373.824,243.434L373.829,243.434ZM373.782,243.434L373.774,243.434L373.782,243.434Z" style="fill:rgb(102,160,152);fill-rule:nonzero;"/>
        <path d="M387.164,255.764L342.318,255.764C342.066,253.633 341.406,251.628 340.42,249.826C339.531,248.204 338.377,246.748 337.017,245.515L337.016,245.515C337.011,245.51 337.005,245.505 337,245.5C336.999,245.499 336.999,245.499 336.998,245.498C336.993,245.493 336.987,245.488 336.982,245.484C336.981,245.483 336.981,245.483 336.98,245.482C336.966,245.469 336.951,245.456 336.936,245.443C336.934,245.44 336.931,245.438 336.928,245.435C336.925,245.433 336.922,245.43 336.919,245.427C336.916,245.424 336.912,245.421 336.909,245.418C336.906,245.415 336.903,245.413 336.9,245.41C336.897,245.407 336.893,245.404 336.89,245.401C336.887,245.399 336.884,245.396 336.881,245.393C336.877,245.39 336.874,245.387 336.87,245.384C336.867,245.381 336.865,245.379 336.862,245.377C336.858,245.373 336.854,245.37 336.85,245.366C336.848,245.364 336.845,245.362 336.843,245.36C336.838,245.355 336.833,245.351 336.828,245.347C336.827,245.345 336.825,245.344 336.824,245.343C336.817,245.337 336.811,245.332 336.804,245.326C336.803,245.325 336.801,245.323 336.8,245.322C336.795,245.318 336.79,245.313 336.785,245.309C336.783,245.307 336.781,245.305 336.779,245.303C336.774,245.3 336.77,245.296 336.766,245.292C336.764,245.29 336.761,245.288 336.759,245.286C336.755,245.283 336.75,245.279 336.746,245.275C336.744,245.273 336.741,245.271 336.74,245.269C336.735,245.266 336.73,245.262 336.726,245.258C336.724,245.256 336.722,245.254 336.72,245.252C336.715,245.248 336.71,245.244 336.705,245.24C336.704,245.238 336.702,245.237 336.7,245.236C336.694,245.23 336.687,245.224 336.681,245.219L371.946,245.219C371.946,246.205 372.745,247.004 373.731,247.004C379.721,247.004 384.884,250.61 387.164,255.764Z" style="fill:rgb(176,173,199);fill-rule:nonzero;"/>
        <path d="M390.99,255.764L387.164,255.764C384.884,250.61 379.721,247.004 373.731,247.004C372.745,247.004 371.946,246.205 371.946,245.219C371.946,244.237 372.739,243.44 373.72,243.434L373.916,243.434C373.918,243.434 373.92,243.435 373.922,243.435L373.966,243.435C373.98,243.435 373.994,243.435 374.009,243.436L374.059,243.436C374.074,243.437 374.088,243.437 374.103,243.437L374.106,243.437C374.121,243.438 374.136,243.438 374.15,243.438L374.154,243.438C374.184,243.439 374.214,243.44 374.244,243.441L374.246,243.441C382.014,243.657 388.579,248.753 390.99,255.764Z" style="fill:rgb(152,151,179);fill-rule:nonzero;"/>
        <path d="M283.808,248.896L427.816,248.896C431.19,248.896 434.021,246.161 434.139,242.788L437.441,148.192C437.56,144.819 434.92,142.084 431.547,142.084L287.537,142.084C284.164,142.084 281.334,144.819 281.216,148.192L277.912,242.788C277.795,246.161 280.434,248.896 283.808,248.896Z" style="fill:rgb(48,74,159);fill-rule:nonzero;"/>
        <path d="M278.429,227.99L277.912,242.788C277.795,246.161 280.434,248.896 283.808,248.896L427.816,248.896C431.19,248.896 434.021,246.161 434.139,242.788L434.655,227.99L278.429,227.99Z" style="fill:rgb(189,187,221);fill-rule:nonzero;"/>
        <path d="M279.484,248.896L423.494,248.896C426.867,248.896 429.698,246.161 429.815,242.788L433.119,148.192C433.236,144.819 430.598,142.084 427.224,142.084L283.215,142.084C279.841,142.084 277.011,144.819 276.893,148.192L273.59,242.788C273.472,246.161 276.111,248.896 279.484,248.896Z" style="fill:rgb(64,78,161);fill-rule:nonzero;"/>
        <path d="M280.365,228.083L424.166,228.083L426.993,147.128L283.192,147.128L280.365,228.083Z" style="fill:white;fill-rule:nonzero;"/>
        <path d="M274.106,227.99L273.59,242.788C273.472,246.161 276.111,248.896 279.484,248.896L423.494,248.896C426.867,248.896 429.698,246.161 429.815,242.788L430.332,227.99L274.106,227.99Z" style="fill:rgb(220,214,235);fill-rule:nonzero;"/>
        <path d="M348.041,237.967C347.966,240.11 349.643,241.847 351.785,241.847C353.928,241.847 355.726,240.11 355.801,237.967C355.875,235.824 354.199,234.087 352.056,234.087C349.913,234.087 348.115,235.824 348.041,237.967Z" style="fill:rgb(189,187,221);fill-rule:nonzero;"/>
        <path d="M424.255,225.563L285.459,225.563L287.979,153.43L426.773,153.43L424.255,225.563Z" style="fill:rgb(220,214,235);fill-rule:nonzero;"/>
        <path d="M426.654,156.858L282.623,156.858L282.962,147.149L426.993,147.149L426.654,156.858Z" style="fill:rgb(29,22,75);fill-rule:nonzero;"/>
        <path d="M425.412,192.424L410.073,192.424L411.315,156.858L426.654,156.858L425.412,192.424Z" style="fill:rgb(44,32,89);fill-rule:nonzero;"/>
        <path d="M423.492,153.856C423.375,153.856 423.259,153.811 423.171,153.72L420.457,150.908C420.286,150.73 420.291,150.448 420.469,150.276C420.645,150.105 420.927,150.109 421.1,150.288L423.813,153.1C423.984,153.277 423.979,153.56 423.802,153.731C423.716,153.814 423.604,153.856 423.492,153.856Z" style="fill:rgb(64,78,161);fill-rule:nonzero;"/>
        <path d="M420.681,153.856C420.563,153.856 420.447,153.811 420.359,153.72C420.188,153.542 420.193,153.26 420.37,153.089L423.28,150.277C423.459,150.104 423.739,150.109 423.912,150.288C424.083,150.465 424.078,150.748 423.901,150.918L420.991,153.73C420.904,153.814 420.792,153.856 420.681,153.856Z" style="fill:rgb(64,78,161);fill-rule:nonzero;"/>
        <path d="M405.645,173.945L376.048,173.945L376.186,170.019L405.782,170.019L405.645,173.945Z" style="fill:rgb(29,22,75);fill-rule:nonzero;"/>
        <path d="M405.131,188.657L375.534,188.657L376.083,172.953L405.68,172.953L405.131,188.657Z" style="fill:rgb(64,78,161);fill-rule:nonzero;"/>
        <path d="M310.026,186.372L292.569,186.372L292.65,184.056L310.106,184.056L310.026,186.372Z" style="fill:rgb(29,22,75);fill-rule:nonzero;"/>
        <path d="M309.723,195.049L292.267,195.049L292.59,185.787L310.046,185.787L309.723,195.049Z" style="fill:rgb(64,78,161);fill-rule:nonzero;"/>
        <path d="M309.642,197.364L292.186,197.364L292.267,195.049L309.723,195.049L309.642,197.364Z" style="fill:rgb(29,22,75);fill-rule:nonzero;"/>
        <path d="M309.339,206.042L291.883,206.042L292.206,196.779L309.662,196.779L309.339,206.042Z" style="fill:rgb(64,78,161);fill-rule:nonzero;"/>
        <path d="M415.18,152.984L417.14,152.984L417.208,151.023L415.248,151.023L415.18,152.984ZM418.001,153.876L414.256,153.876L414.387,150.131L418.132,150.131L418.001,153.876Z" style="fill:rgb(64,78,161);fill-rule:nonzero;"/>
        <path d="M424.17,227.99L280.139,227.99L280.309,223.136L424.34,223.136L424.17,227.99Z" style="fill:rgb(29,22,75);fill-rule:nonzero;"/>
        <path d="M287.109,223.136L280.309,223.136L282.623,156.858L289.424,156.858L287.109,223.136Z" style="fill:rgb(62,44,117);fill-rule:nonzero;"/>
        <path d="M287.65,162.819L283.98,162.819L284.108,159.149L287.778,159.149L287.65,162.819Z" style="fill:rgb(64,78,161);fill-rule:nonzero;"/>
        <path d="M287.418,169.464L283.748,169.464L283.877,165.794L287.546,165.794L287.418,169.464Z" style="fill:rgb(64,78,161);fill-rule:nonzero;"/>
        <path d="M287.187,176.109L283.517,176.109L283.645,172.439L287.314,172.439L287.187,176.109Z" style="fill:rgb(64,78,161);fill-rule:nonzero;"/>
        <path d="M286.954,182.754L283.284,182.754L283.412,179.084L287.082,179.084L286.954,182.754Z" style="fill:rgb(64,78,161);fill-rule:nonzero;"/>
        <path d="M286.722,189.399L283.053,189.399L283.181,185.729L286.851,185.729L286.722,189.399Z" style="fill:rgb(64,78,161);fill-rule:nonzero;"/>
        <path d="M286.49,196.045L282.82,196.045L282.948,192.375L286.618,192.375L286.49,196.045Z" style="fill:rgb(64,78,161);fill-rule:nonzero;"/>
        <path d="M426.401,164.108L411.062,164.108L411.108,162.769L426.448,162.769L426.401,164.108Z" style="fill:rgb(64,78,161);fill-rule:nonzero;"/>
        <path d="M426.147,171.357L410.809,171.357L410.855,170.019L426.194,170.019L426.147,171.357Z" style="fill:rgb(64,78,161);fill-rule:nonzero;"/>
        <path d="M425.895,178.607L410.556,178.607L410.603,177.268L425.941,177.268L425.895,178.607Z" style="fill:rgb(64,78,161);fill-rule:nonzero;"/>
        <path d="M425.642,185.857L410.303,185.857L410.35,184.518L425.688,184.518L425.642,185.857Z" style="fill:rgb(64,78,161);fill-rule:nonzero;"/>
        <path d="M367.949,216.616L314.712,216.616L316.57,163.378L369.809,163.378L367.949,216.616Z" style="fill:white;fill-rule:nonzero;"/>
        <path d="M344.875,191.174L341.892,183.043L338.342,191.174L344.875,191.174ZM346.795,196.474L336.051,196.474L333.882,201.411L326.55,201.411L338.653,176.001L345.731,176.001L356.097,201.411L348.619,201.411L346.795,196.474Z" style="fill:rgb(120,198,188);fill-rule:nonzero;"/>
        <path d="M328.781,177.301L326.182,177.301L326.272,174.701L328.872,174.701L328.781,177.301Z" style="fill:rgb(64,78,161);fill-rule:nonzero;"/>
        <path d="M357.994,177.301L355.395,177.301L355.485,174.701L358.085,174.701L357.994,177.301Z" style="fill:rgb(64,78,161);fill-rule:nonzero;"/>
        <path d="M357.114,202.495L354.515,202.495L354.605,199.895L357.205,199.895L357.114,202.495Z" style="fill:rgb(64,78,161);fill-rule:nonzero;"/>
        <path d="M327.902,202.495L325.302,202.495L325.393,199.895L327.993,199.895L327.902,202.495Z" style="fill:rgb(64,78,161);fill-rule:nonzero;"/>
        <path d="M326.934,200.918L355.594,200.918L356.454,176.277L327.794,176.277L326.934,200.918ZM356.127,201.471L326.361,201.471L327.261,175.725L357.026,175.725L356.127,201.471Z" style="fill:rgb(64,78,161);fill-rule:nonzero;"/>
        <rect x="266.209" y="277.134" width="61.463" height="2.799" style="fill:rgb(62,44,117);fill-rule:nonzero;"/>
        <path d="M297.433,277.145C296.763,277.282 296.107,276.85 295.971,276.18L295.325,273.022C295.188,272.353 295.62,271.697 296.29,271.561C296.961,271.423 297.615,271.855 297.753,272.526L298.398,275.683C298.536,276.354 298.104,277.008 297.433,277.145Z" style="fill:rgb(76,84,164);fill-rule:nonzero;"/>
        <path d="M298.001,273.74L295.573,274.237L291.028,252.021C290.891,251.35 291.323,250.695 291.994,250.558C292.664,250.42 293.319,250.853 293.456,251.523L298.001,273.74Z" style="fill:rgb(62,44,117);fill-rule:nonzero;"/>
        <path d="M119.971,409.981L114.971,409.981L114.971,322.6C114.971,308.719 106.439,297.426 95.952,297.426L91.552,297.426C81.065,297.426 72.534,308.719 72.534,322.6L72.534,409.981L67.534,409.981L67.534,322.6C67.534,305.962 78.309,292.426 91.552,292.426L95.952,292.426C109.196,292.426 119.971,305.962 119.971,322.6L119.971,409.981Z" style="fill:rgb(62,44,117);fill-rule:nonzero;"/>
        <rect x="91.355" y="282.558" width="4.794" height="12.368" style="fill:rgb(62,44,117);fill-rule:nonzero;"/>
        <path d="M436.112,409.981L431.112,409.981L431.112,322.6C431.112,308.719 422.581,297.426 412.094,297.426L407.694,297.426C397.207,297.426 388.676,308.719 388.676,322.6L388.676,409.981L383.676,409.981L383.676,322.6C383.676,305.962 394.45,292.426 407.694,292.426L412.094,292.426C425.338,292.426 436.112,305.962 436.112,322.6L436.112,409.981Z" style="fill:rgb(62,44,117);fill-rule:nonzero;"/>
        <rect x="407.496" y="282.558" width="4.795" height="12.368" style="fill:rgb(62,44,117);fill-rule:nonzero;"/>
        <rect x="59.11" y="279.955" width="385.425" height="5.204" style="fill:rgb(64,78,161);fill-rule:nonzero;"/>
        <path d="M249.205,279.932L227.277,279.932C223.58,279.932 220.582,276.934 220.582,273.236C220.582,269.539 223.58,266.541 227.277,266.541L249.205,266.541C252.902,266.541 255.9,269.539 255.9,273.236C255.9,276.934 252.902,279.932 249.205,279.932Z" style="fill:rgb(245,133,114);fill-rule:nonzero;"/>
        <path d="M239.73,176.372L237.137,176.372L237.137,164.393L240.551,164.393L243.089,171.37C243.904,173.612 242.452,176.142 240.075,176.356C239.961,176.366 239.846,176.372 239.73,176.372Z" style="fill:rgb(245,139,120);fill-rule:nonzero;"/>
        <path d="M230.04,196.849L217.225,196.849L217.225,152.472L240.548,152.472C240.946,152.472 239.978,182.047 239.639,184.763C238.959,190.189 236.58,196.849 230.04,196.849Z" style="fill:rgb(246,149,133);fill-rule:nonzero;"/>
        <path d="M239.873,180.99C239.577,180.894 239.261,180.842 238.933,180.842C238.305,180.842 237.701,180.739 237.136,180.55L237.136,157.182L239.857,157.182C240.113,157.182 240.368,157.173 240.621,157.157C240.529,163.57 240.158,174.972 239.873,180.99Z" style="fill:rgb(247,163,148);fill-rule:nonzero;"/>
        <path d="M218.159,214.444L208.611,214.444L208.611,174.991L228.888,174.991L228.888,199.438L218.159,214.444Z" style="fill:rgb(246,149,133);fill-rule:nonzero;"/>
        <path d="M216.206,197.09C206.078,197.09 197.868,188.88 197.868,178.753L197.868,176.372L216.206,176.372L216.206,197.09Z" style="fill:rgb(246,149,133);fill-rule:nonzero;"/>
        <path d="M216.445,190.9L200.778,190.9C195.84,190.9 191.837,186.897 191.837,181.959L191.837,153.553C191.837,148.615 195.84,144.612 200.778,144.612L216.445,144.612C221.383,144.612 225.385,148.615 225.385,153.553L225.385,181.959C225.385,186.897 221.383,190.9 216.445,190.9Z" style="fill:rgb(44,32,89);fill-rule:nonzero;"/>
        <path d="M241.81,128.506C238.291,128.506 235.194,130.303 233.38,133.028L209.815,133.028C204.547,133.028 200.276,137.299 200.276,142.567L200.276,157.182L239.857,157.182C245.219,157.182 250.064,153.502 251.494,148.332C252.018,146.442 252.16,144.438 252.095,142.487C252.026,140.423 252.083,138.365 251.601,136.336C250.523,131.805 246.514,128.506 241.81,128.506Z" style="fill:rgb(44,32,89);fill-rule:nonzero;"/>
        <path d="M224.839,176.372C222.603,176.372 220.79,174.559 220.79,172.323L220.79,168.042C220.79,165.807 222.603,163.994 224.839,163.994C227.075,163.994 228.888,165.807 228.888,168.042L228.888,172.323C228.888,174.559 227.075,176.372 224.839,176.372Z" style="fill:rgb(246,149,133);fill-rule:nonzero;"/>
        <path d="M223.83,171.289L220.44,171.289L220.44,150.83L233.181,150.83L233.181,161.939C233.181,167.103 228.994,171.289 223.83,171.289Z" style="fill:rgb(44,32,89);fill-rule:nonzero;"/>
        <path d="M241.056,161.771L239.978,161.771C239.585,161.771 239.267,161.452 239.267,161.06C239.267,160.667 239.585,160.349 239.978,160.349L241.056,160.349C241.449,160.349 241.767,160.667 241.767,161.06C241.767,161.452 241.449,161.771 241.056,161.771Z" style="fill:rgb(44,32,89);fill-rule:nonzero;"/>
        <path d="M233.288,175.197L233.288,157.182L228.888,166.54L228.888,199.438L233.288,199.438C238.083,199.438 241.97,195.551 241.97,190.756L241.97,183.879C241.97,182.202 240.61,180.842 238.933,180.842C235.815,180.842 233.288,178.314 233.288,175.197Z" style="fill:rgb(44,32,89);fill-rule:nonzero;"/>
        <path d="M223.83,171.289L220.44,171.289L220.44,170.889C224.287,169.73 227.091,166.164 227.091,161.939L227.091,157.182L233.181,157.182L233.181,157.41L228.888,166.54L228.888,169.804C227.43,170.744 225.693,171.289 223.83,171.289Z" style="fill:rgb(80,56,119);fill-rule:nonzero;"/>
        <path d="M228.888,169.804L228.888,166.54L233.181,157.41L233.181,161.939C233.181,165.239 231.47,168.14 228.888,169.804Z" style="fill:rgb(80,56,119);fill-rule:nonzero;"/>
        <path d="M241.734,128.506L241.736,128.506L241.734,128.506ZM241.757,128.506L241.762,128.506L241.757,128.506ZM241.781,128.506L241.786,128.506L241.781,128.506Z" style="fill:rgb(138,206,198);fill-rule:nonzero;"/>
        <path d="M239.857,157.182L233.768,157.182C239.129,157.182 243.974,153.502 245.405,148.332C245.927,146.442 246.07,144.438 246.005,142.487C245.937,140.423 245.993,138.365 245.511,136.336C244.674,132.816 242.063,130.047 238.737,128.984C239.683,128.682 240.689,128.514 241.734,128.506L241.81,128.506C246.514,128.506 250.523,131.805 251.601,136.336C252.083,138.365 252.026,140.423 252.095,142.487C252.104,142.777 252.11,143.068 252.109,143.359C252.109,145.031 251.94,146.723 251.494,148.332C250.064,153.502 245.219,157.182 239.857,157.182Z" style="fill:rgb(80,56,119);fill-rule:nonzero;"/>
        <path d="M258.741,282.604C244.56,282.604 233.167,268.317 227.371,254.989C222.878,244.661 219.362,235.009 215.29,223.834L214.761,222.382C213.496,218.912 215.284,215.073 218.754,213.809C222.224,212.543 226.063,214.332 227.327,217.802L227.857,219.255C231.854,230.225 235.306,239.699 239.636,249.655C243.468,258.465 252.188,270.885 260.566,269.02C268.276,267.292 285.732,261.132 285.907,261.07L286.659,260.853C292.137,259.612 299.104,259.778 299.881,259.804C303.573,259.913 306.477,262.995 306.366,266.687C306.256,270.378 303.137,273.261 299.482,273.172C297.891,273.13 293.195,273.163 289.961,273.822C287.161,274.806 271.376,280.304 263.49,282.07C261.877,282.433 260.292,282.604 258.741,282.604Z" style="fill:rgb(246,149,133);fill-rule:nonzero;"/>
        <path d="M224.75,255.429C224.667,255.191 216.474,231.52 212.333,220.136L229.755,213.797C233.947,225.318 242.188,249.127 242.271,249.366L224.75,255.429Z" style="fill:rgb(120,198,188);fill-rule:nonzero;"/>
        <path d="M222.874,308.234L155.902,306.755L159.203,218.939C160.072,208.084 173.493,197.487 184.333,198.355L212.823,200.635C223.664,201.503 231.747,211.006 230.878,221.861L222.874,308.234Z" style="fill:rgb(120,198,188);fill-rule:nonzero;"/>
        <path d="M285.461,400.783L277.196,400.736L276.028,377.674L288.154,377.742L288.809,397.473C288.799,399.312 287.3,400.793 285.461,400.783Z" style="fill:rgb(246,149,133);fill-rule:nonzero;"/>
        <path d="M285.162,398.229L274.226,398.054L274.282,394.526C274.302,393.304 275.308,392.329 276.53,392.349L283.041,392.453C284.264,392.473 285.238,393.479 285.219,394.701L285.162,398.229Z" style="fill:rgb(29,22,75);fill-rule:nonzero;"/>
        <path d="M297.172,397.171L277.884,397.063C275.874,397.051 274.235,398.671 274.224,400.682L274.173,409.803L297.101,409.932L305.835,409.981L305.857,405.955C305.885,401.131 301.996,397.198 297.172,397.171Z" style="fill:rgb(44,32,89);fill-rule:nonzero;"/>
        <path d="M290.094,397.164L290.075,397.131L289.446,397.128L274.244,397.042L274.173,409.803L289.374,409.889L297.101,409.932L298.108,409.938L298.132,405.911C298.157,401.306 294.612,397.521 290.094,397.164Z" style="fill:rgb(29,22,75);fill-rule:nonzero;"/>
        <path d="M271.873,385.303L269.729,331.666C268.336,324.17 261.647,318.913 253.989,319.335L253.626,319.356L253.263,319.352C239.934,319.181 218.128,318.921 216.378,318.944L215.805,298.135C217.466,298.073 242.234,298.391 253.196,298.531C271.606,297.656 287.602,310.721 290.395,329.026L290.482,329.601L290.505,330.182L292.674,384.473L271.873,385.303Z" style="fill:rgb(29,22,75);fill-rule:nonzero;"/>
        <path d="M313.369,357.781L305.197,359.014L299.425,336.573L311.416,334.767L316.165,353.994C316.439,355.812 315.188,357.508 313.369,357.781Z" style="fill:rgb(246,149,133);fill-rule:nonzero;"/>
        <path d="M312.778,355.291L301.847,356.822L301.612,355.145C301.302,352.931 302.845,350.885 305.059,350.575L307.975,350.167C310.188,349.856 312.233,351.399 312.544,353.613L312.778,355.291Z" style="fill:rgb(29,22,75);fill-rule:nonzero;"/>
        <path d="M324.381,352.402L305.308,355.277C303.32,355.577 301.952,357.431 302.252,359.418L303.61,368.438L326.283,365.021L334.92,363.72L334.32,359.738C333.601,354.968 329.151,351.684 324.381,352.402Z" style="fill:rgb(44,32,89);fill-rule:nonzero;"/>
        <path d="M317.387,353.49L317.363,353.46L316.741,353.554L301.709,355.819L303.61,368.438L318.644,366.173L326.283,365.021L327.28,364.871L326.681,360.89C325.994,356.336 321.906,353.145 317.387,353.49Z" style="fill:rgb(29,22,75);fill-rule:nonzero;"/>
        <path d="M297.113,346.312C297.038,345.904 288.7,304.028 267.001,304.028C257.265,304.028 220.656,313.081 199.868,318.787L194.357,298.711C200.138,297.125 251.285,283.21 267.001,283.21C306.369,283.21 317.157,340.17 317.598,342.595L297.113,346.312Z" style="fill:rgb(44,32,89);fill-rule:nonzero;"/>
        <path d="M269.814,330.882C268.631,323.12 261.819,317.596 253.988,318.051L252.855,306.273C286.716,296.236 287.582,309.307 290.395,327.742L269.814,330.882Z" style="fill:rgb(29,22,75);fill-rule:nonzero;"/>
        <path d="M207.888,322.256L178.333,322.256C168.6,322.256 160.709,314.365 160.709,304.631L160.709,273.769L227.277,273.769L227.277,302.866C227.277,313.575 218.596,322.256 207.888,322.256Z" style="fill:rgb(44,32,89);fill-rule:nonzero;"/>
        <path d="M198.756,399.783C197.023,399.783 195.618,398.378 195.618,396.646L195.618,357.579C195.618,355.847 197.023,354.441 198.756,354.441C200.489,354.441 201.894,355.847 201.894,357.579L201.894,396.646C201.894,398.378 200.489,399.783 198.756,399.783Z" style="fill:rgb(161,159,188);fill-rule:nonzero;"/>
        <path d="M204.802,409.981L192.71,409.981C190.694,409.981 189.061,408.348 189.061,406.332L189.061,398.988C189.061,396.973 190.694,395.339 192.71,395.339L204.802,395.339C206.817,395.339 208.451,396.973 208.451,398.988L208.451,406.332C208.451,408.348 206.817,409.981 204.802,409.981Z" style="fill:rgb(64,78,161);fill-rule:nonzero;"/>
        <path d="M236.691,399.783C234.958,399.783 233.554,398.378 233.554,396.646L233.554,392.732L198.763,392.814L198.756,392.814C197.026,392.814 195.623,391.415 195.618,389.685C195.614,387.951 197.016,386.543 198.749,386.539L236.684,386.449L236.691,386.449C237.522,386.449 238.319,386.778 238.907,387.365C239.498,387.954 239.829,388.754 239.829,389.587L239.829,396.646C239.829,398.378 238.424,399.783 236.691,399.783Z" style="fill:rgb(161,159,188);fill-rule:nonzero;"/>
        <path d="M242.737,409.981L230.645,409.981C228.63,409.981 226.996,408.348 226.996,406.332L226.996,398.988C226.996,396.973 228.63,395.339 230.645,395.339L242.737,395.339C244.753,395.339 246.387,396.973 246.387,398.988L246.387,406.332C246.387,408.348 244.753,409.981 242.737,409.981Z" style="fill:rgb(64,78,161);fill-rule:nonzero;"/>
        <path d="M230.481,395.347C228.542,395.434 226.996,397.028 226.996,398.988L226.996,406.332C226.996,408.292 228.542,409.887 230.481,409.973C232.42,409.887 233.967,408.292 233.967,406.332L233.967,398.988C233.967,397.028 232.42,395.434 230.481,395.347Z" style="fill:rgb(47,50,143);fill-rule:nonzero;"/>
        <path d="M160.892,399.783C159.159,399.783 157.754,398.378 157.754,396.646L157.754,389.587C157.754,388.754 158.086,387.954 158.676,387.365C159.266,386.776 160.026,386.438 160.899,386.449L198.835,386.539C200.568,386.543 201.969,387.951 201.965,389.685C201.961,391.414 200.557,392.814 198.828,392.814L198.82,392.814L164.03,392.732L164.03,396.646C164.03,398.378 162.625,399.783 160.892,399.783Z" style="fill:rgb(161,159,188);fill-rule:nonzero;"/>
        <path d="M154.846,409.981L166.938,409.981C168.954,409.981 170.587,408.348 170.587,406.332L170.587,398.988C170.587,396.973 168.954,395.339 166.938,395.339L154.846,395.339C152.831,395.339 151.197,395.907 151.197,397.923L151.197,405.267C151.197,407.281 152.831,409.981 154.846,409.981Z" style="fill:rgb(64,78,161);fill-rule:nonzero;"/>
        <path d="M167.102,395.347C169.041,395.434 170.587,397.028 170.587,398.988L170.587,406.332C170.587,408.292 169.041,409.887 167.102,409.973C165.163,409.887 163.617,408.292 163.617,406.332L163.617,398.988C163.617,397.028 165.163,395.434 167.102,395.347Z" style="fill:rgb(47,50,143);fill-rule:nonzero;"/>
        <path d="M198.756,370.47C196.157,370.47 194.049,368.363 194.049,365.764L194.049,327.764C194.049,325.164 196.157,323.058 198.756,323.058C201.355,323.058 203.462,325.164 203.462,327.764L203.462,365.764C203.462,368.363 201.355,370.47 198.756,370.47Z" style="fill:rgb(64,78,161);fill-rule:nonzero;"/>
        <rect x="191.696" y="346.764" width="14.119" height="30.766" style="fill:rgb(47,50,143);fill-rule:nonzero;"/>
        <path d="M235.022,340.663L150.146,340.663C147.513,340.663 145.378,338.529 145.378,335.896L145.378,330.989L239.929,330.989L239.929,335.757C239.929,338.467 237.732,340.663 235.022,340.663Z" style="fill:rgb(47,50,143);fill-rule:nonzero;"/>
        <rect x="145.378" y="318.613" width="94.551" height="15.688" style="fill:rgb(220,214,235);fill-rule:nonzero;"/>
        <path d="M255.098,329.931L239.929,334.301L239.929,318.613L253.957,318.613C256.232,318.613 258.078,320.458 258.078,322.733L258.078,325.971C258.078,327.807 256.862,329.422 255.098,329.931Z" style="fill:rgb(189,187,221);fill-rule:nonzero;"/>
        <path d="M230.412,308.99L156.682,308.99L153.153,207.944L226.883,207.944L230.412,308.99Z" style="fill:rgb(189,187,221);fill-rule:nonzero;"/>
        <path d="M218.384,308.99L144.654,308.99L141.125,207.944L214.856,207.944L218.384,308.99Z" style="fill:rgb(220,214,235);fill-rule:nonzero;"/>
        <path d="M210.552,303.614L152.593,303.614C151.149,303.614 149.938,302.443 149.887,301L146.917,215.936C146.866,214.491 147.996,213.321 149.44,213.321L207.398,213.321C208.843,213.321 210.054,214.491 210.104,215.936L213.075,301C213.125,302.443 211.996,303.614 210.552,303.614Z" style="fill:rgb(189,187,221);fill-rule:nonzero;"/>
        <path d="M210.33,202.299L161.002,202.299L159.926,171.475L209.253,171.475L210.33,202.299Z" style="fill:rgb(189,187,221);fill-rule:nonzero;"/>
        <path d="M202.283,202.299L152.956,202.299L151.879,171.475L201.207,171.475L202.283,202.299Z" style="fill:rgb(220,214,235);fill-rule:nonzero;"/>
        <path d="M183.908,222.495L173.571,222.495C172.127,222.495 170.916,221.325 170.865,219.88L169.774,188.63C169.723,187.186 170.853,186.016 172.297,186.016L182.634,186.016C184.079,186.016 185.29,187.186 185.34,188.63L186.432,219.88C186.482,221.325 185.353,222.495 183.908,222.495Z" style="fill:rgb(64,78,161);fill-rule:nonzero;"/>
        <path d="M187.964,344.694L177.627,344.694C176.183,344.694 175.012,343.523 175.012,342.08L175.012,293.365C175.012,291.921 176.183,290.751 177.627,290.751L187.964,290.751C189.408,290.751 190.579,291.921 190.579,293.365L190.579,342.08C190.579,343.523 189.408,344.694 187.964,344.694Z" style="fill:rgb(64,78,161);fill-rule:nonzero;"/>
        <path d="M187.818,193.336L168.248,193.336C166.804,193.336 165.592,192.166 165.542,190.722L165.274,183.052C165.224,181.608 166.354,180.437 167.797,180.437L187.367,180.437C188.811,180.437 190.023,181.608 190.073,183.052L190.341,190.722C190.392,192.166 189.262,193.336 187.818,193.336Z" style="fill:rgb(64,78,161);fill-rule:nonzero;"/>
        <path d="M185.686,198.512L185.505,193.336L185.686,198.512ZM170.119,198.512L169.938,193.336L170.119,198.512Z" style="fill:rgb(176,173,199);fill-rule:nonzero;"/>
        <path d="M185.686,198.512L170.119,198.512L169.938,193.336L185.505,193.336L185.685,198.512" style="fill:rgb(55,67,155);fill-rule:nonzero;"/>
    </g>
</svg>
