<?xml version="1.0" encoding="UTF-8" standalone="no"?>
<!DOCTYPE svg PUBLIC "-//W3C//DTD SVG 1.1//EN" "http://www.w3.org/Graphics/SVG/1.1/DTD/svg11.dtd">
<svg width="100%" height="100%" viewBox="0 0 2084 2084" version="1.1" xmlns="http://www.w3.org/2000/svg" xmlns:xlink="http://www.w3.org/1999/xlink" xml:space="preserve" xmlns:serif="http://www.serif.com/" style="fill-rule:evenodd;clip-rule:evenodd;stroke-linejoin:round;stroke-miterlimit:2;">
    <g transform="matrix(1,0,0,1,-2254.48,0)">
        <g id="Artboard2" transform="matrix(1,0,0,1,2254.48,0)">
            <rect x="0" y="0" width="2083.33" height="2083.33" style="fill:none;"/>
            <g transform="matrix(4.16667,0,0,4.16667,79.6182,0)">
                <path d="M88.902,321.919C48.014,289.937 21.075,242.353 41.799,188.925C73.887,106.198 171.735,64.938 255,60.822C290.638,59.06 301.375,72.521 317.222,101.648C335.943,136.06 388.791,131.785 418.385,155.092C440.706,172.671 451.171,203.943 451.447,231.789C452.118,299.376 396.185,347.47 335.339,363.35C278.593,378.161 215.811,373.64 159.736,357.913C135.527,351.123 110.304,338.658 88.902,321.919Z" style="fill:rgb(136,179,223);fill-rule:nonzero;"/>
            </g>
            <g transform="matrix(5.00828,0,0,5.00828,-1738.31,-322.54)">
                <g>
                    <path d="M555.687,415.091C459.504,415.091 381.533,412.115 381.533,408.443C381.533,404.772 459.504,401.797 555.687,401.797C651.87,401.797 729.841,404.772 729.841,408.443C729.841,412.115 651.87,415.091 555.687,415.091Z" style="fill:rgb(197,199,199);fill-rule:nonzero;"/>
                    <path d="M487.082,239.574C487.082,239.574 516.349,235.252 525.109,268.01C494.815,281.821 487.082,239.574 487.082,239.574Z" style="fill:rgb(75,62,91);fill-rule:nonzero;"/>
                    <path d="M596.694,227.969C596.291,225.171 617.504,215.704 623.582,232.561C625.071,236.691 622.057,273.923 622.057,273.923L592.906,273.699L596.694,227.969Z" style="fill:rgb(47,26,66);fill-rule:nonzero;"/>
                    <path d="M599.359,195.024C596.088,197.207 593.608,215.154 602.618,217.248C611.628,219.342 621.457,216.679 621.73,205.997C622.003,195.316 614.12,185.175 599.359,195.024Z" style="fill:rgb(47,26,66);fill-rule:nonzero;"/>
                    <rect x="611.039" y="213.074" width="2.237" height="15.866" style="fill:rgb(47,26,66);fill-rule:nonzero;"/>
                    <path d="M571.348,203.717C571.348,203.717 564.002,191.831 573.606,186.672C583.21,181.513 607.007,181.456 606.278,209.206C605.549,236.956 601.101,250.478 601.101,250.478L581.308,242.687L571.348,203.717Z" style="fill:rgb(254,192,77);fill-rule:nonzero;"/>
                    <path d="M570.09,290.57C570.09,290.57 577.764,292.19 605.802,292.19C605.786,285.392 606.958,279.443 607.536,274.015C612.486,227.521 593.921,228.945 593.921,228.945C593.921,228.945 592.166,232.153 576.867,232.129C558.739,249.13 570.09,290.57 570.09,290.57Z" style="fill:rgb(194,70,94);fill-rule:nonzero;"/>
                    <path d="M595.628,211.386L593.921,228.945C593.921,228.945 590.142,242.609 581.588,242.609C573.033,242.609 576.867,232.129 576.867,232.129L580.166,229.983L581.129,223.098C581.129,223.098 576.515,222.885 572.527,220.03C570.135,218.314 569.456,214.267 569.48,210.431C569.493,208.77 569.651,207.05 569.885,205.386C570.665,199.891 572.285,195.024 572.285,195.024C572.285,195.024 579.282,195.477 591.34,199.841C591.476,206.582 595.443,204.128 595.443,204.128C595.443,204.128 597.717,200.959 599.177,202.404C600.638,203.843 601.39,206.194 599.947,209.367C598.928,211.623 595.628,211.386 595.628,211.386Z" style="fill:rgb(253,209,177);fill-rule:nonzero;"/>
                    <path d="M580.784,203.896C580.709,204.51 581.08,205.06 581.613,205.125C582.146,205.191 582.638,204.747 582.714,204.133C582.789,203.52 582.418,202.969 581.885,202.904C581.353,202.839 580.859,203.283 580.784,203.896Z" style="fill:rgb(47,26,66);fill-rule:nonzero;"/>
                    <path d="M571.84,202.714C571.765,203.328 572.136,203.878 572.669,203.943C573.202,204.008 573.694,203.564 573.77,202.951C573.845,202.337 573.474,201.787 572.941,201.722C572.408,201.656 571.916,202.101 571.84,202.714Z" style="fill:rgb(47,26,66);fill-rule:nonzero;"/>
                    <path d="M582.451,207.668C581.892,209.046 582.556,210.616 583.934,211.175C585.313,211.734 586.882,211.07 587.442,209.691C588,208.313 587.336,206.743 585.958,206.184C584.58,205.625 583.009,206.29 582.451,207.668Z" style="fill:rgb(244,148,179);fill-rule:nonzero;"/>
                    <path d="M571.256,208.846C570.931,209.649 570.259,210.213 569.48,210.431C569.493,208.77 569.651,207.05 569.885,205.386C571.186,205.983 571.798,207.504 571.256,208.846Z" style="fill:rgb(244,148,179);fill-rule:nonzero;"/>
                    <path d="M572.179,211.136L579.279,210.455C579.279,210.455 579.49,212.719 576.122,213.042C572.755,213.365 572.179,211.136 572.179,211.136Z" style="fill:white;fill-rule:nonzero;"/>
                    <path d="M575.653,209.185C574.69,209.185 573.313,208.801 572.688,207.308L572.469,206.784L573.016,206.633C574.542,206.21 575.196,203.905 575.203,203.882C575.276,203.617 575.549,203.459 575.818,203.533C576.083,203.606 576.24,203.881 576.167,204.146C576.138,204.252 575.504,206.503 573.86,207.367C574.609,208.386 575.969,208.165 576.034,208.154C576.304,208.109 576.565,208.288 576.613,208.558C576.662,208.829 576.483,209.088 576.212,209.138C576.054,209.167 575.863,209.185 575.653,209.185Z" style="fill:rgb(248,167,135);fill-rule:nonzero;"/>
                    <path d="M596.139,209.146L596.052,209.139C595.78,209.091 595.598,208.832 595.646,208.56C595.901,207.102 596.63,203.675 597.88,203.344C598.25,203.247 598.61,203.3 598.919,203.502C599.637,203.971 599.833,205.103 599.853,205.231C599.896,205.503 599.71,205.758 599.438,205.801C599.159,205.845 598.909,205.659 598.865,205.387C598.822,205.122 598.645,204.517 598.371,204.339C598.319,204.305 598.255,204.278 598.135,204.311C597.727,204.471 597.008,206.579 596.631,208.732C596.589,208.975 596.377,209.146 596.139,209.146Z" style="fill:rgb(248,167,135);fill-rule:nonzero;"/>
                    <path d="M598.533,208.048C598.422,208.048 598.311,208.012 598.218,207.936L596.429,206.479C596.215,206.304 596.183,205.989 596.358,205.775C596.532,205.562 596.847,205.529 597.061,205.703L598.85,207.161C599.064,207.335 599.096,207.65 598.922,207.864C598.822,207.985 598.679,208.048 598.533,208.048Z" style="fill:rgb(248,167,135);fill-rule:nonzero;"/>
                    <path d="M583.94,200.361L583.825,200.347L580.453,199.497C580.202,199.434 580.05,199.179 580.113,198.929C580.176,198.677 580.43,198.526 580.681,198.589L584.054,199.439C584.305,199.502 584.456,199.756 584.393,200.007C584.34,200.219 584.149,200.361 583.94,200.361Z" style="fill:rgb(254,192,77);fill-rule:nonzero;"/>
                    <path d="M571.222,200.006C570.973,200.006 570.766,199.811 570.755,199.56C570.743,199.301 570.943,199.082 571.201,199.071L574.051,198.944C574.31,198.93 574.528,199.132 574.54,199.39C574.551,199.648 574.351,199.868 574.093,199.879L571.243,200.006L571.222,200.006Z" style="fill:rgb(254,192,77);fill-rule:nonzero;"/>
                    <path d="M519.271,243.348L527.823,263.334L532.681,263.334L524.327,241.309C523.925,240.25 522.909,239.549 521.776,239.549C519.82,239.549 518.5,241.549 519.271,243.348Z" style="fill:rgb(47,26,66);fill-rule:nonzero;"/>
                    <path d="M595.875,233.403L556.044,248.455L535.173,242.609L533.598,253.213C533.598,253.213 552.574,262.858 556.507,263.32C560.44,263.783 598.534,252.154 598.534,252.154C598.534,252.154 598.397,232.573 595.875,233.403Z" style="fill:rgb(194,70,94);fill-rule:nonzero;"/>
                    <path d="M535.173,242.609L528.376,239.131C528.376,239.131 522.7,235.913 521.143,236.224C519.586,236.536 515.328,240.408 515.636,242.481C515.818,243.716 518.96,247.296 520.763,246.834C520.005,245.068 520.434,243.386 520.434,243.386L525.864,245.363L533.598,253.213L535.173,242.609Z" style="fill:rgb(253,209,177);fill-rule:nonzero;"/>
                    <path d="M723.914,327.351C723.848,317.113 723.267,305.895 722.257,295.447C720.191,274.124 716.343,256.029 711.429,256.029C711.429,256.029 671.602,255.22 607.462,256.943C543.322,258.658 441.564,263.772 441.564,263.772C435.317,264.544 429.441,265.467 424.06,267.153C413.946,270.334 405.613,276.19 399.937,288.752C398.08,292.876 396.07,298.418 394.128,304.618C387.185,326.789 381.071,357.426 385.509,362.463C392.013,369.863 710.324,371.559 719.419,362.463C722.667,359.216 724.028,344.684 723.914,327.351Z" style="fill:rgb(186,200,231);fill-rule:nonzero;"/>
                    <path d="M641.935,257.563L622.359,365.103L624.797,365.103L644.509,257.563" style="fill:rgb(136,179,223);fill-rule:nonzero;"/>
                    <path d="M498.149,260.955L506.466,365.103L509.88,365.103L500.962,260.775" style="fill:rgb(136,179,223);fill-rule:nonzero;"/>
                    <path d="M493.581,372.858L633.962,372.858C633.962,372.858 718.362,378.272 722.956,364.229C727.549,350.186 722.956,341.711 722.956,341.711L701.477,359.888L490.204,360.31" style="fill:rgb(47,26,66);fill-rule:nonzero;"/>
                    <path d="M499.88,368.896C499.88,346.815 481.98,328.915 459.9,328.915C437.819,328.915 419.92,346.815 419.92,368.896C419.92,390.976 437.819,408.875 459.9,408.875C481.98,408.875 499.88,390.976 499.88,368.896Z" style="fill:rgb(47,26,66);fill-rule:nonzero;"/>
                    <path d="M499.88,368.896C499.88,346.815 481.98,328.915 459.9,328.915C437.819,328.915 419.92,346.815 419.92,368.896C419.92,390.976 437.819,408.875 459.9,408.875C481.98,408.875 499.88,390.976 499.88,368.896Z" style="fill:rgb(47,26,66);fill-rule:nonzero;"/>
                    <path d="M483.257,368.896C483.257,355.995 472.799,345.538 459.9,345.538C447,345.538 436.543,355.995 436.543,368.896C436.543,381.795 447,392.252 459.9,392.252C472.799,392.252 483.257,381.795 483.257,368.896Z" style="fill:rgb(75,62,91);fill-rule:nonzero;"/>
                    <path d="M468.485,368.896C468.485,364.153 464.641,360.31 459.9,360.31C455.158,360.31 451.315,364.153 451.315,368.896C451.315,373.637 455.158,377.48 459.9,377.48C464.641,377.48 468.485,373.637 468.485,368.896Z" style="fill:white;fill-rule:nonzero;"/>
                    <path d="M707.846,368.896C707.846,346.815 689.947,328.915 667.867,328.915C645.786,328.915 627.887,346.815 627.887,368.896C627.887,390.976 645.786,408.875 667.867,408.875C689.947,408.875 707.846,390.976 707.846,368.896Z" style="fill:rgb(47,26,66);fill-rule:nonzero;"/>
                    <path d="M707.846,368.896C707.846,346.815 689.947,328.915 667.867,328.915C645.786,328.915 627.887,346.815 627.887,368.896C627.887,390.976 645.786,408.875 667.867,408.875C689.947,408.875 707.846,390.976 707.846,368.896Z" style="fill:rgb(47,26,66);fill-rule:nonzero;"/>
                    <path d="M691.224,368.896C691.224,355.995 680.766,345.538 667.867,345.538C654.967,345.538 644.509,355.995 644.509,368.896C644.509,381.795 654.967,392.252 667.867,392.252C680.766,392.252 691.224,381.795 691.224,368.896Z" style="fill:rgb(75,62,91);fill-rule:nonzero;"/>
                    <path d="M676.452,368.896C676.452,364.153 672.608,360.31 667.867,360.31C663.125,360.31 659.281,364.153 659.281,368.896C659.281,373.637 663.125,377.48 667.867,377.48C672.608,377.48 676.452,373.637 676.452,368.896Z" style="fill:white;fill-rule:nonzero;"/>
                    <path d="M381.035,355.224C381.035,355.224 374.544,370.372 400.51,372.415C426.477,374.459 428.1,374.981 428.1,374.981L428.1,360.31L381.035,355.224Z" style="fill:rgb(47,26,66);fill-rule:nonzero;"/>
                    <path d="M401.84,332.838C401.84,340.167 397.422,346.108 391.972,346.108C386.522,346.108 382.104,340.167 382.104,332.838C382.104,325.509 386.522,319.566 391.972,319.566C397.422,319.566 401.84,325.509 401.84,332.838Z" style="fill:rgb(186,200,231);fill-rule:nonzero;"/>
                    <path d="M397.678,332.169C397.678,336.598 395.008,340.188 391.715,340.188C388.422,340.188 385.752,336.598 385.752,332.169C385.752,327.739 388.422,324.149 391.715,324.149C395.008,324.149 397.678,327.739 397.678,332.169Z" style="fill:white;fill-rule:nonzero;"/>
                    <path d="M424.06,267.153C424.536,290.533 404.156,301.913 394.128,304.618C394.518,303.37 394.909,302.151 395.299,300.971C396.871,296.247 398.451,292.047 399.937,288.752C405.137,277.238 412.575,271.353 421.574,268.01C422.393,267.695 423.222,267.42 424.06,267.153Z" style="fill:white;fill-rule:nonzero;"/>
                    <path d="M421.574,268.01C420.336,286.752 405.337,297.075 395.299,300.971C396.871,296.247 398.451,292.047 399.937,288.752C405.137,277.238 412.575,271.353 421.574,268.01Z" style="fill:rgb(254,192,77);fill-rule:nonzero;"/>
                    <path d="M651.318,252.249C656.232,219.959 658.759,187.018 658.759,187.018L689.098,187.97C697.45,202.112 700.801,232.44 701.477,250.706C686.964,251.268 670.364,251.782 651.318,252.249ZM637.118,252.563C593.19,253.555 543.505,254.306 505.211,254.806L492.458,229.616C492.458,229.616 533.55,192.17 539.313,188.852C549.334,183.08 635.173,185.711 635.173,185.711C637.277,187.358 639.004,229.211 637.118,252.563ZM695.744,181.033C691.478,177.623 548.759,174.804 535.512,183.271C525.722,189.527 449.126,253.963 441.564,263.772C441.564,263.772 675.135,261.904 711.429,256.029C713.915,228.23 700.001,184.442 695.744,181.033Z" style="fill:rgb(47,26,66);fill-rule:nonzero;"/>
                    <path d="M491.29,234.734L493.325,254.315C493.325,254.315 475.684,259.332 474.684,245.658C473.915,235.144 491.29,234.734 491.29,234.734Z" style="fill:rgb(136,179,223);fill-rule:nonzero;"/>
                    <path d="M698.914,294.313C698.914,302.886 691.964,309.836 683.39,309.836C674.817,309.836 667.867,302.886 667.867,294.313C667.867,285.739 674.817,278.789 683.39,278.789C691.964,278.789 698.914,285.739 698.914,294.313Z" style="fill:white;fill-rule:nonzero;"/>
                    <path d="M680.946,286.996L676.808,296.923L681.906,296.406L678.529,304.85L689.972,290.956L684.243,291.989L687.735,285.867L680.946,286.996Z" style="fill:rgb(254,192,77);fill-rule:nonzero;"/>
                    <path d="M621.007,290.933L605.546,290.933C602.748,290.933 600.48,288.664 600.48,285.867C600.48,283.069 602.748,280.802 605.546,280.802L621.007,280.802C623.805,280.802 626.073,283.069 626.073,285.867C626.073,288.664 623.805,290.933 621.007,290.933Z" style="fill:rgb(136,179,223);fill-rule:nonzero;"/>
                    <path d="M723.914,327.351L723.848,327.351C715.01,327.351 707.848,320.188 707.848,311.352C707.848,303.057 714.172,296.237 722.257,295.447C723.267,305.895 723.848,317.113 723.914,327.351Z" style="fill:rgb(136,179,223);fill-rule:nonzero;"/>
                </g>
            </g>
        </g>
    </g>
</svg>
