<?xml version="1.0" encoding="UTF-8" standalone="no"?>
<!DOCTYPE svg PUBLIC "-//W3C//DTD SVG 1.1//EN" "http://www.w3.org/Graphics/SVG/1.1/DTD/svg11.dtd">
<svg width="100%" height="100%" viewBox="0 0 800 800" version="1.1" xmlns="http://www.w3.org/2000/svg" xmlns:xlink="http://www.w3.org/1999/xlink" xml:space="preserve" xmlns:serif="http://www.serif.com/" style="fill-rule:evenodd;clip-rule:evenodd;">
    <g id="svga-group-wrapper" transform="matrix(4,0,0,4,0,0)">
        <g id="svga-group-backs-single">
            <rect id="SvgjsPath5395" x="-25" y="-25" width="250" height="250" style="fill:rgb(254,255,252);fill-rule:nonzero;"/>
            <path id="SvgjsPath5396" d="M99.093,225L98.872,225L-25,-23.26L-25,-25L1.992,-25L99.093,225ZM58.936,-25L34.616,-25L99.351,225L99.544,225L58.936,-25ZM-25,146.607L-25,162.044L96.026,225L96.764,225L-25,146.607ZM112.078,-25L88.791,-25L99.782,225L99.967,225L112.078,-25ZM-25,103.112L-25,124.129L97.442,225L97.854,225L-25,103.112ZM92.652,225L94.6,225L-25,179.631L-25,192.411L92.652,225ZM-25,36.37L-25,70.115L98.278,225L98.559,225L-25,36.37ZM225,162.044L225,146.607L103.236,225L103.973,225L225,162.044ZM225,192.411L225,179.631L105.4,225L107.347,225L225,192.411ZM225,124.128L225,103.112L102.146,225L102.558,225L225,124.128ZM165.383,-25L141.065,-25L100.456,225L100.649,225L165.383,-25ZM225,70.114L225,36.37L101.44,225L101.721,225L225,70.114ZM225,-23.261L225,-25L198.008,-25L100.907,225L101.128,225L225,-23.261Z" style="fill:url(#_Radial1);fill-rule:nonzero;"/>
        </g>
        <g id="svga-group-subwrapper" transform="matrix(0.722473,0,0,0.722473,27.7528,31.2031)">
            <g id="svga-group-hair-back">
                <rect id="SvgjsPath5268" x="99.5" y="99.5" width="1" height="1" style="fill:rgb(42,35,43);fill-rule:nonzero;"/>
            </g>
            <g id="svga-group-humanbody-single">
                <path id="SvgjsPath2890" d="M195.417,199.778C193.221,195.032 187.222,187.999 180.557,186.056C172.318,183.653 153.72,180.748 146.824,179.133C141.296,177.837 130.162,167.839 126.26,164.483C125.56,163.883 124.987,162.644 124.973,161.723C124.834,150.859 129.168,121.999 129.168,121.999L70.833,121.999C70.833,121.999 75.167,150.858 75.026,161.723C75.015,162.644 74.439,163.883 73.741,164.483C69.839,167.839 58.705,177.837 53.177,179.133C46.28,180.748 27.682,183.752 19.444,186.155C12.777,188.097 6.78,195.031 4.584,199.777C0.876,207.785 0,222.277 0,234.777L200,234.777C200,222.278 199.123,207.786 195.417,199.778Z" style="fill:rgb(240,199,177);fill-rule:nonzero;"/>
                <path id="SvgjsPath2891" d="M159.156,184.058C183.498,187.6 193.742,192.766 196.95,234.779L200,234.779C200,222.279 199.123,207.787 195.417,199.779C193.221,195.033 187.222,188 180.557,186.057C172.318,183.654 153.72,180.749 146.824,179.134C141.296,177.838 128.582,167.065 125.181,162.784C128.541,167.488 137.972,178.389 146.235,181.244C150.188,182.61 153.48,183.232 159.156,184.058ZM53.766,181.244C62.029,178.39 71.459,167.488 74.82,162.784C71.42,167.064 58.706,177.838 53.177,179.134C46.281,180.749 27.683,183.753 19.444,186.156C12.779,188.098 6.78,195.032 4.584,199.778C0.878,207.786 0.001,222.278 0.001,234.778L3.051,234.778C6.239,193.034 16.526,187.595 40.845,184.057C46.52,183.232 49.813,182.61 53.766,181.244Z" style="fill:rgb(255,228,214);fill-rule:nonzero;"/>
                <path id="SvgjsPath2892" d="M95.646,197.62C95.646,197.62 90.572,196.011 88.563,195.241C78.114,191.232 44.168,188.634 44.168,188.634C44.168,188.634 79.922,190.053 87.812,191.413C87.354,186.646 84.795,171.409 84.795,171.409C84.795,171.409 89.944,188.224 91.204,192.466C91.878,194.734 95.646,197.62 95.646,197.62ZM106.445,196.278C106.356,196.351 106.254,196.446 106.143,196.546C106.256,196.461 106.358,196.372 106.445,196.278ZM95.646,197.62C95.646,197.62 98.539,200.612 99.993,200.65C101.903,200.701 104.821,197.751 106.144,196.546C104.879,197.503 101.985,197.937 100.834,197.982C99.504,198.033 95.646,197.62 95.646,197.62ZM116.664,190.101C115.119,190.349 112.278,190.89 112.278,190.89L114.565,176C113.919,179.071 110.091,192.211 106.445,196.278C108.355,194.662 112.603,193.887 114.769,193.574C125.005,192.09 125.001,192.091 155.831,188.634C155.831,188.634 126.76,188.479 116.664,190.101Z" style="fill:rgb(225,172,143);fill-rule:nonzero;"/>
                <path id="SvgjsPath2893" d="M195.417,199.778C193.221,195.032 187.222,187.999 180.557,186.056C172.318,183.653 153.72,180.748 146.824,179.133C141.296,177.837 130.162,167.839 126.26,164.483C125.56,163.883 124.987,162.644 124.973,161.723C124.834,150.859 129.168,121.999 129.168,121.999L70.833,121.999C70.833,121.999 75.167,150.858 75.026,161.723C75.015,162.644 74.439,163.883 73.741,164.483C69.839,167.839 58.705,177.837 53.177,179.133C46.28,180.748 27.682,183.752 19.444,186.155C12.777,188.097 6.78,195.031 4.584,199.777C0.876,207.785 0,222.277 0,234.777L200,234.777C200,222.278 199.123,207.786 195.417,199.778Z" style="fill:none;fill-rule:nonzero;stroke:rgb(194,123,85);stroke-width:1.5px;"/>
            </g>
            <g id="svga-group-chinshadow-single">
                <path id="SvgjsPath5368" d="M100.002,170.866C114.135,170.866 119.002,166.051 124.221,161.626C124.153,154.885 125.715,141.69 126.956,132.348C111.298,130.152 88.7,130.153 73.042,132.348C74.283,141.69 75.844,154.879 75.775,161.62C80.999,166.047 85.863,170.866 100.002,170.866Z" style="fill:url(#_Linear2);fill-rule:nonzero;"/>
            </g>
            <g id="svga-group-clothes-single">
                <path id="SvgjsPath5172" d="M42.77,235.757L44.093,174.905C44.093,174.905 54.287,172.418 60.728,168.592C78.224,190.545 130.179,185.925 139.064,167.972C140.553,168.497 141.785,169.169 143.326,169.685C148.326,173.071 152.539,174.179 152.539,174.179L153.474,235.864C139.188,236.052 42.77,235.757 42.77,235.757Z" style="fill:rgb(245,244,245);fill-rule:nonzero;"/>
                <path id="SvgjsPath5173" d="M154.014,177.705C149.778,176.986 146.403,176.008 144.562,174.161C139.219,184.186 117.799,190.539 110.707,191.47C131.261,185.194 139.895,180.657 143.305,169.887C145.295,172.27 149.827,173.436 155.618,174.425L154.014,177.705ZM52.67,174.381C54.124,174.069 54.85,173.147 56.293,172.788L54.765,170.921C51.651,173.155 45.794,174.226 38.865,175.345L39.053,179.083C43.009,178.293 46.87,177.295 50.482,175.76C57.965,184.245 69.65,188.419 81.542,190.147C66.624,186.562 58.07,180.511 52.67,174.381Z" style="fill:white;fill-rule:nonzero;"/>
                <path id="SvgjsPath5174" d="M137.861,170.055C131.932,181.416 87.121,194.65 61.852,170.921C60.281,171.536 55.581,173.006 55.581,173.006C73.987,196.086 127.926,196.233 142.283,172.894C142.221,172.87 139.321,170.737 137.861,170.055Z" style="fill:rgb(223,221,226);fill-rule:nonzero;"/>
                <path id="SvgjsPath5175" d="M139.008,167.841C128.921,186.416 76.43,189.045 60.769,168.466C55.049,170.022 49.55,173.342 44.013,174.173L42.77,235.757L153.473,235.864L152.618,173.478C149.249,172.771 146.117,170.741 143.364,169.584C141.842,168.945 140.55,168.37 139.008,167.841ZM60.39,169.087C74.293,192.173 129.207,187.542 139.809,169.186C141.095,169.685 141.424,169.882 142.915,170.369C131.933,191.577 77.609,198.336 55.39,171.516C55.546,171.476 58.823,169.629 60.39,169.087ZM54.287,172.418C72.25,199.464 131.547,195.274 143.87,171.131C145.641,172.522 148.4,174.12 151.806,174.866L153.466,233.946L43.089,233.962L44.993,175.663C47.777,174.264 52.247,173.232 54.287,172.418Z" style="fill:rgb(184,182,201);fill-rule:nonzero;"/>
                <path id="SvgjsPath5176" d="M-4.529,235.566C-7.103,221.714 -6.821,187.974 4.484,188.045C17.62,182.734 33.753,176.641 47.286,172.734C54.194,165.488 60.722,158.597 73.474,151.42C73.863,154.019 75.348,159.961 73.485,163.193C72.13,165.545 67.702,168.769 63.931,171.561C61.902,174.281 60.004,176.935 57.332,180.65C62.5,202.951 66.933,214.43 67.429,233.773C67.429,233.773 65.977,234.462 131.9,234.17C134.115,211.831 136.893,200.609 142.279,180.072C142.279,180.072 137.971,175.058 135.072,171.202C133.018,169.205 126.712,163.67 126.232,162.551C125.057,159.81 125.684,156.363 126.342,151.184C137.135,156.057 143.342,163.205 152.424,172.487C160.153,174.606 183.284,182.454 194.869,187.703C198.834,187.593 201.072,189.702 202.741,193.169C208.146,204.364 206.867,220.466 204.921,235.958C185.83,235.989 49.887,238.17 -4.529,235.566Z" style="fill:rgb(51,85,41);fill-rule:nonzero;"/>
                <path id="SvgjsPath5177" d="M73.875,154.081C74.035,155.151 74.179,156.166 74.286,157.122C74.068,157.388 57.074,180.475 56.95,180.647C61.126,171.148 67.1,161.305 73.875,154.081ZM126.053,154.081C125.894,155.151 125.869,156.166 125.762,157.122C125.98,157.388 142.693,179.591 142.816,179.764C138.391,170.914 132.828,161.305 126.053,154.081ZM165.008,185.154C160.728,191.385 159.814,193.536 155.129,199.711C156.2,199.711 157.928,199.877 158.999,199.877C162.663,193.592 162.67,190.393 165.008,185.154ZM169.394,230.379C173.187,221.479 176.328,213.668 180.133,204.755L178.886,202.741C175.717,211.896 172.354,221.199 169.394,230.379ZM41.048,199.877C42.119,199.877 43.847,199.711 44.919,199.711C40.234,193.536 39.32,193.15 35.041,186.919C37.377,192.158 37.384,193.592 41.048,199.877ZM21.161,202.741L19.914,204.755C23.72,213.668 24.679,221.479 28.473,230.379C25.512,221.199 24.33,211.896 21.161,202.741Z" style="fill:rgb(36,70,27);fill-rule:nonzero;"/>
                <path id="SvgjsPath5178" d="M65.638,169.283C66.819,167.637 70.875,162.011 74.239,156.722C75.227,162.179 73.413,165.416 65.638,169.283ZM125.74,156.36C128.293,160.756 131.302,165.132 134.404,169.163C126,165.336 125.435,161.423 125.74,156.36Z" style="fill:rgb(24,54,15);fill-rule:nonzero;"/>
                <path id="SvgjsPath5179" d="M126.318,151.359C126.326,151.298 126.335,151.241 126.341,151.185C144.434,161.184 154.917,176.205 167.088,187.402C166.64,188.123 165.86,188.595 165.401,189.307C152.656,179.609 146.599,164.946 126.318,151.359ZM71.736,152.022C56.702,160.235 35.494,185.379 33.418,187.291C33.866,188.015 34.109,187.868 34.568,188.579C47.314,178.882 50.793,169.283 71.736,152.022ZM194.869,187.704C193.869,186.905 170.223,177.665 152.279,172.735C185.977,189.034 197.866,191.28 203.75,197.056C203.367,196.057 202.586,187.489 194.869,187.704ZM47.458,172.555C33.934,176.469 16.619,182.653 4.483,188.046C-0.881,188.152 -4.725,195.976 -5.548,204.13C1.914,187.317 -1.773,198.62 47.458,172.555Z" style="fill:rgb(68,100,58);fill-rule:nonzero;"/>
                <path id="SvgjsPath5180" d="M206.6,210.062C206.26,201.427 203.545,186.959 194.909,187.602C194.195,186.992 174.087,177.835 152.624,171.991C145.271,164.536 136.109,154.393 126.253,151.034C125.542,157.462 124.776,161.656 126.469,163.748C128.71,166.187 131.399,168.627 134.037,170.27C138.653,176.406 142.176,180.048 142.176,180.048C136.746,200.751 133.361,211.362 131.203,233.736L68.798,233.736C66.641,211.363 63.255,200.752 57.825,180.048C57.825,180.048 61.347,176.405 65.964,170.27C68.603,168.626 71.291,166.187 73.532,163.748C75.224,161.656 74.459,157.462 73.748,151.034C63.892,154.393 54.729,164.536 47.377,171.991C25.914,177.836 5.806,186.992 5.092,187.602C-3.545,186.959 -6.26,201.427 -6.599,210.062C-7.01,220.549 -5.164,235 -5.014,236L205.015,236C205.165,234.999 207.011,220.549 206.6,210.062ZM72.984,163.194C70.726,165.427 69.326,166.375 66.511,168.476C71.34,162.205 70.852,163.043 74.219,157.247C74.37,159.739 73.433,162.751 72.984,163.194ZM-3.172,234.028C-4.254,221.184 -6.088,209.618 -2.742,197.036C-1.461,192.209 -0.258,188.941 4.713,188.527C5.78,194.065 12.845,217.251 19.011,233.06C12.785,208.868 13.7,214.25 10.792,204.608C9.828,201.373 8.938,198.122 7.813,194.936C7.03,192.722 6.163,190.549 5.551,188.283L45.984,173.418C45.705,173.701 33.089,186.852 32.785,187.222C34.632,190.243 40.601,194.444 43.63,198.98C31.194,200.154 25.122,202.153 20.63,202.82C20.961,203.739 29.691,228.173 30.606,230.476C29.127,222.559 25.79,210.179 21.969,203.265C23.379,203.086 40.046,200.773 45.362,199.788C43.886,196.934 37.319,191.351 33.803,187.169C54.449,169.007 59.225,159.767 73.396,151.715C73.546,153.224 73.839,154.726 73.946,156.234C58.151,179.767 56.297,179.801 56.297,179.801C60.882,197.611 66.829,215.625 66.829,233.874L-3.172,234.028ZM127.016,163.194C126.568,162.751 125.63,159.739 125.781,157.247C129.148,163.044 128.66,162.205 133.489,168.476C130.674,166.375 129.273,165.428 127.016,163.194ZM203.172,234.028L133.172,233.874C133.172,215.625 139.119,197.61 143.704,179.801C143.704,179.801 141.85,179.767 126.055,156.234C126.161,154.726 126.454,153.224 126.605,151.715C140.776,159.767 145.551,169.007 166.198,187.169C162.682,191.352 156.115,196.935 154.639,199.788C159.954,200.772 176.621,203.086 178.032,203.265C174.212,210.179 170.875,222.559 169.395,230.476C170.31,228.172 179.04,203.739 179.371,202.82C174.879,202.153 168.807,200.154 156.371,198.98C159.399,194.444 165.369,190.244 167.216,187.222C166.911,186.852 154.296,173.701 154.017,173.418C154.018,173.418 194.45,188.283 194.45,188.283C193.839,190.55 192.971,192.722 192.188,194.936C191.063,198.122 190.173,201.373 189.209,204.608C186.301,214.251 187.216,208.868 180.99,233.06C187.156,217.25 194.22,194.065 195.288,188.527C200.259,188.941 201.462,192.209 202.743,197.036C206.088,209.618 204.254,221.185 203.172,234.028Z" style="fill:rgb(14,39,7);fill-rule:nonzero;"/>
            </g>
            <g id="svga-group-head">
                <g id="svga-group-ears-left">
                    <path id="SvgjsPath4496" d="M47.69,83.08C46.102,80.704 39.665,75.247 35.987,76.086C31.632,77.079 30.279,80.458 30.384,82.561C30.99,94.586 34.81,94.577 37.094,99.201C38.803,102.66 40.22,104.245 41.266,111.159C41.864,115.112 45.693,118.143 48.483,117.994C52.391,117.784 55.477,114.278 56.774,110.821C59.463,103.643 51.823,89.265 47.69,83.08Z" style="fill:rgb(240,199,177);fill-rule:nonzero;stroke:rgb(194,123,85);stroke-width:1.5px;"/>
                    <path id="SvgjsPath4497" d="M43.274,100.336C43.124,99.782 43.212,98.829 43.298,97.906C43.375,97.066 44.736,94.018 44.646,93.466C44.302,91.398 42.715,87.526 41.697,85.435C40.528,83.032 38.093,80.026 35.907,79.357C35.003,79.079 32.428,79.397 32.126,79.996C30.995,82.237 31.511,84.407 33.226,90.206C34.076,93.079 37.141,96.413 37.224,96.746C38.291,101.089 42.323,108.03 43.712,109.585C43.968,109.873 44.231,110.037 44.291,109.961C44.35,109.884 44.187,109.593 43.93,109.305C42.558,107.758 38.563,100.834 37.534,96.643C36.442,92.197 39.847,85.297 40.464,83.843C40.843,84.485 41.167,85.104 41.418,85.62C41.616,86.026 41.835,86.501 42.063,87.016C41.696,87.776 37.818,93.383 39.037,97.622C39.488,99.185 41.091,102.214 42.469,103.809C42.952,104.368 43.362,104.526 43.659,105.043C44,105.642 44.391,106.322 45.451,106.769C45.666,106.86 45.859,106.89 46.028,106.88C46.321,106.86 46.538,106.719 46.695,106.554C46.724,106.825 46.739,107.171 46.746,107.494C46.753,107.907 46.819,108.246 46.908,108.249C46.997,108.252 47.076,107.916 47.069,107.503C47.06,106.994 47.029,106.363 46.937,106.066C46.664,105.193 45.909,104.234 45.108,103.222C44.319,102.226 43.505,101.193 43.274,100.336ZM36.96,94.639C34.613,87.86 35.442,80.971 35.857,79.996C37.202,79.996 39.635,82.491 40.254,83.494C39.874,84.351 36.837,89.99 36.96,94.639ZM45.559,106.414C44.598,106.011 44.256,105.413 43.924,104.834C43.625,104.31 42.906,103.812 42.578,103.456C42.387,103.247 42.047,102.689 41.863,102.564C40.101,94.958 43.208,92.182 43.83,91.6C44.061,92.329 44.241,92.999 44.33,93.539C44.412,94.035 43.05,97.091 42.978,97.866C42.889,98.827 42.796,99.82 42.966,100.449C43.219,101.387 44.059,102.449 44.87,103.477C45.59,104.389 46.329,105.329 46.602,106.116C46.509,106.282 46.204,106.686 45.559,106.414Z" style="fill:rgb(194,123,85);fill-rule:nonzero;"/>
                </g>
                <g id="svga-group-ears-right">
                    <path id="SvgjsPath4498" d="M152.049,83.08C153.637,80.704 160.074,75.247 163.75,76.086C168.107,77.079 169.459,80.458 169.354,82.561C168.749,94.586 164.928,94.577 162.645,99.201C160.934,102.66 159.518,104.245 158.471,111.159C157.873,115.112 154.043,118.143 151.254,117.994C147.346,117.784 144.26,114.278 142.963,110.821C140.275,103.643 147.916,89.265 152.049,83.08Z" style="fill:rgb(240,199,177);fill-rule:nonzero;stroke:rgb(194,123,85);stroke-width:1.5px;"/>
                    <path id="SvgjsPath4499" d="M154.633,103.222C153.832,104.235 153.076,105.194 152.803,106.066C152.711,106.363 152.68,106.994 152.672,107.503C152.664,107.916 152.744,108.252 152.832,108.249C152.922,108.246 152.986,107.907 152.994,107.494C153.002,107.171 153.015,106.824 153.045,106.554C153.201,106.719 153.418,106.861 153.711,106.88C153.881,106.89 154.072,106.859 154.289,106.769C155.35,106.323 155.738,105.643 156.08,105.043C156.377,104.526 156.789,104.368 157.271,103.809C158.648,102.215 160.251,99.185 160.703,97.622C161.922,93.383 158.043,87.776 157.676,87.016C157.905,86.501 158.123,86.027 158.321,85.62C158.573,85.104 158.897,84.484 159.276,83.843C159.893,85.297 163.297,92.197 162.206,96.643C161.177,100.834 157.181,107.758 155.81,109.305C155.554,109.593 155.39,109.884 155.449,109.961C155.51,110.037 155.771,109.873 156.027,109.585C157.418,108.029 161.449,101.089 162.517,96.746C162.599,96.413 165.663,93.079 166.513,90.206C168.228,84.407 168.745,82.237 167.615,79.996C167.312,79.397 164.738,79.079 163.832,79.357C161.646,80.026 159.213,83.032 158.043,85.435C157.025,87.525 155.438,91.398 155.094,93.466C155.004,94.018 156.365,97.066 156.442,97.906C156.528,98.828 156.618,99.781 156.467,100.336C156.232,101.193 155.42,102.226 154.633,103.222ZM159.484,83.494C160.103,82.491 162.537,79.996 163.88,79.996C164.296,80.971 165.124,87.86 162.776,94.639C162.902,89.99 159.863,84.351 159.484,83.494ZM153.137,106.116C153.41,105.328 154.149,104.388 154.869,103.477C155.68,102.449 156.519,101.387 156.773,100.449C156.941,99.82 156.849,98.826 156.759,97.866C156.689,97.091 155.325,94.035 155.407,93.539C155.497,92.999 155.677,92.329 155.907,91.6C156.53,92.182 159.636,94.958 157.874,102.564C157.69,102.689 157.351,103.247 157.159,103.456C156.831,103.812 156.112,104.31 155.813,104.834C155.481,105.413 155.139,106.011 154.178,106.414C153.533,106.686 153.23,106.282 153.137,106.116Z" style="fill:rgb(194,123,85);fill-rule:nonzero;"/>
                </g>
                <g id="svga-group-faceshape-wrap">
                    <g id="svga-group-faceshape-single">
                        <path id="SvgjsPath5365" d="M100.002,0.867C66.384,0.921 39.082,28.71 39.134,62.948C39.142,68.386 39.838,73.657 41.136,78.681L41.137,78.681C41.149,78.735 52.679,117.515 55.157,130.252C56.539,137.356 64.953,143.757 72.422,148.981C79.389,153.857 82.951,160.866 100.002,160.866C117.053,160.866 120.615,153.857 127.582,148.981C135.05,143.756 143.465,137.356 144.847,130.252C147.326,117.515 158.856,78.734 158.867,78.681L158.869,78.681C160.167,73.658 160.863,68.386 160.871,62.948C160.923,28.71 133.62,0.921 100.002,0.867Z" style="fill:rgb(240,199,177);fill-rule:nonzero;"/>
                        <path id="SvgjsPath5366" d="M146.772,23.236C154.25,33.651 158.689,46.627 158.67,60.697C158.661,66.135 157.991,71.406 156.74,76.43L156.738,76.43C156.727,76.484 145.614,115.263 143.226,128.002C141.891,135.106 133.755,141.507 126.558,146.731C119.84,151.606 116.437,158.617 100.001,158.617C83.567,158.617 80.159,151.606 73.444,146.731C66.247,141.506 58.109,135.106 56.779,128.002C54.39,115.264 43.277,76.484 43.266,76.43C42.014,71.407 41.344,66.135 41.335,60.697C41.314,46.631 45.75,33.66 53.224,23.247C44.412,34.011 39.111,47.85 39.134,62.948C39.142,68.386 39.838,73.657 41.136,78.681L41.137,78.681C41.149,78.735 52.679,117.515 55.157,130.252C56.539,137.356 64.953,143.757 72.422,148.981C79.389,153.857 82.951,160.866 100.002,160.866C117.053,160.866 120.615,153.857 127.582,148.981C135.05,143.756 143.465,137.356 144.847,130.252C147.326,117.515 158.856,78.734 158.867,78.681L158.869,78.681C160.167,73.658 160.863,68.386 160.871,62.948C160.894,47.846 155.589,34.002 146.772,23.236Z" style="fill:rgb(232,185,160);fill-rule:nonzero;"/>
                        <path id="SvgjsPath5367" d="M100.002,0.867C66.384,0.921 39.082,28.71 39.134,62.948C39.142,68.386 39.838,73.657 41.136,78.681L41.137,78.681C41.149,78.735 52.679,117.515 55.157,130.252C56.539,137.356 64.953,143.757 72.422,148.981C79.389,153.857 82.951,160.866 100.002,160.866C117.053,160.866 120.615,153.857 127.582,148.981C135.05,143.756 143.465,137.356 144.847,130.252C147.326,117.515 158.856,78.734 158.867,78.681L158.869,78.681C160.167,73.658 160.863,68.386 160.871,62.948C160.923,28.71 133.62,0.921 100.002,0.867Z" style="fill:none;fill-rule:nonzero;stroke:rgb(194,123,85);stroke-width:1.5px;"/>
                    </g>
                </g>
                <g id="svga-group-mouth-single">
                    <path id="SvgjsPath3244" d="M100.2,142.947C97.368,143.091 96.556,140.194 96.556,140.194C96.556,140.194 100.487,140.759 103.547,139.841C103.548,139.842 102.692,142.822 100.2,142.947Z" style="fill:url(#_Linear3);fill-rule:nonzero;"/>
                    <path id="SvgjsPath3248" d="M100.488,140.76C98.504,140.86 96.723,140.683 96.611,140.671C96.473,140.657 96.373,140.535 96.387,140.399C96.402,140.261 96.53,140.166 96.661,140.175C96.702,140.178 100.757,140.58 103.399,139.838C103.53,139.806 103.67,139.879 103.708,140.012C103.746,140.145 103.668,140.282 103.535,140.32C102.601,140.582 101.517,140.708 100.488,140.76Z" style="fill:rgb(194,123,85);fill-rule:nonzero;"/>
                    <path id="SvgjsPath3249" d="M82.5,130.299C82.5,130.299 95.032,131.785 99.218,131.798C103.771,131.81 118.5,130.299 118.5,130.299C114.242,133.833 109.557,137.231 98.945,137.298C89.453,137.359 87.021,133.912 82.5,130.299Z" style="fill:white;fill-rule:nonzero;"/>
                    <path id="SvgjsPath3250" d="M82.5,130.299C82.5,130.299 95.032,131.785 99.218,131.798C103.771,131.81 118.5,130.299 118.5,130.299C114.242,133.833 109.557,137.231 98.945,137.298C89.453,137.359 87.021,133.912 82.5,130.299Z" style="fill:none;fill-rule:nonzero;stroke:rgb(194,123,85);stroke-width:0.75px;"/>
                </g>
                <g id="svga-group-eyes-left">
                    <g id="svga-group-eyesback-left">
                        <path id="SvgjsPath4503" d="M83.071,89.125C79.778,88.341 78.102,90.184 73.262,90.291C65.205,90.468 63.324,89.673 62.063,87.653C61.54,86.816 61.04,85.725 60.799,85.052L60.699,80.903C62.027,76.954 80.24,76.551 86.599,82.687C86.886,83.353 87.032,83.974 87.064,84.554C86.874,85.512 86.552,86.432 86.117,87.303C85.411,88.113 84.355,88.729 83.071,89.125Z" style="fill:url(#_Radial4);fill-rule:nonzero;"/>
                    </g>
                    <g id="svga-group-eyesiriswrapper-left" transform="matrix(1,0,0,1,0.25,0.25)">
                        <g id="svga-group-eyesiriscontrol-left">
                            <g id="svga-group-eyesiris-left">
                                <path id="SvgjsPath5183" d="M79.788,85.588C78.919,88.78 75.626,90.661 72.427,89.784C69.23,88.908 67.343,85.606 68.213,82.413C69.082,79.218 72.381,77.337 75.578,78.215C78.772,79.09 80.659,82.392 79.788,85.588Z" style="fill:rgb(62,68,66);fill-rule:nonzero;stroke:rgb(14,22,19);stroke-width:0.5px;"/>
                                <path id="SvgjsPath5184" d="M79.643,84.371C79.202,87.916 76.571,89.763 73.691,89.57C71.033,89.391 68.657,87.43 68.437,84.045C69.356,83.781 70.577,84.21 71.648,84.046C71.645,84.085 71.631,84.12 71.63,84.159C71.546,85.459 72.588,86.592 73.959,86.684C75.333,86.776 76.515,85.792 76.6,84.493C76.609,84.324 76.599,84.157 76.573,83.997C77.527,84.141 78.693,83.999 79.643,84.371Z" style="fill:rgb(83,83,83);fill-rule:nonzero;"/>
                                <path id="SvgjsPath5185" d="M74.867,81.998C73.548,81.621 72.2,82.374 71.86,83.689C71.519,84.997 72.313,86.367 73.631,86.745C74.953,87.124 76.3,86.37 76.642,85.061C76.986,83.745 76.188,82.376 74.867,81.998Z" style="fill-opacity:0.9;fill-rule:nonzero;"/>
                                <path id="SvgjsPath5186" d="M74.867,81.998C73.548,81.621 72.2,82.374 71.86,83.689C71.519,84.997 72.313,86.367 73.631,86.745C74.953,87.124 76.3,86.37 76.642,85.061C76.986,83.745 76.188,82.376 74.867,81.998Z" style="fill:none;fill-rule:nonzero;stroke:rgb(14,22,19);stroke-width:0.75px;"/>
                                <path id="SvgjsPath5187" d="M71.16,87.657C71.035,88.094 70.354,87.908 70.479,87.469C70.6,87.046 70.925,86.786 71.132,86.414C71.353,86.016 71.963,86.372 71.741,86.77C71.571,87.078 71.257,87.314 71.16,87.657ZM72.246,86.96C72.058,87.179 71.812,87.99 71.706,88.255C71.536,88.677 72.219,88.859 72.387,88.443C72.445,88.298 72.643,87.58 72.746,87.46C73.04,87.116 72.543,86.614 72.246,86.96ZM73.716,89.048C74.085,88.623 74.048,88.136 74.04,87.607C74.033,87.152 73.327,87.152 73.334,87.607C73.338,87.9 73.426,88.308 73.217,88.549C72.92,88.891 73.417,89.392 73.716,89.048ZM74.437,87.519C74.442,87.957 74.497,88.384 74.626,88.804C74.76,89.238 75.441,89.053 75.307,88.616C75.195,88.254 75.148,87.897 75.143,87.519C75.138,87.064 74.432,87.063 74.437,87.519Z" style="fill:white;fill-opacity:0.5;fill-rule:nonzero;"/>
                                <path id="SvgjsPath5188" d="M78.197,82.971C77.502,83.388 76.457,83.013 75.864,82.132C75.272,81.251 75.361,80.198 76.057,79.783C76.751,79.364 77.799,79.74 78.387,80.621C78.979,81.502 78.893,82.554 78.197,82.971Z" style="fill:white;fill-opacity:0.8;fill-rule:nonzero;"/>
                            </g>
                        </g>
                    </g>
                    <g id="svga-group-eyesfront-left">
                        <path id="SvgjsPath4528" d="M53.729,84.098C53.347,87.402 63.583,106.102 73.8,106.102C84.017,106.102 93.3,100.81 93.3,84.099C93.3,66.31 84.017,62.098 73.8,62.098C63.583,62.098 55.626,67.704 53.729,84.098ZM60.8,85.053L60.7,80.904C62.028,76.955 80.241,76.552 86.6,82.688C87.996,85.919 86.191,88.165 83.071,89.126C79.778,88.342 78.102,90.185 73.262,90.292C65.205,90.469 63.324,89.674 62.063,87.654C61.54,86.816 61.04,85.726 60.8,85.053Z" style="fill:rgb(240,199,177);fill-rule:nonzero;"/>
                        <path id="SvgjsPath4529" d="M59.698,82.412C59.721,89.946 67.344,96.016 76.736,95.978C86.125,95.935 93.721,89.799 93.697,82.265C93.674,74.732 86.05,68.66 76.657,68.699C67.265,68.743 59.673,74.878 59.698,82.412ZM60.8,85.053L60.7,80.904C62.028,76.955 80.241,76.552 86.6,82.688C87.996,85.919 86.191,88.165 83.071,89.126C79.778,88.342 78.102,90.185 73.262,90.292C65.205,90.469 63.324,89.674 62.063,87.654C61.54,86.816 61.04,85.726 60.8,85.053Z" style="fill:url(#_Radial5);fill-rule:nonzero;"/>
                        <path id="SvgjsPath4534" d="M62.063,87.654C61.54,86.817 61.04,85.726 60.799,85.053L60.699,80.904C62.027,76.955 80.24,76.552 86.599,82.688C87.995,85.919 86.19,88.165 83.07,89.126C79.777,88.342 78.101,90.185 73.261,90.292C65.206,90.469 63.324,89.673 62.063,87.654Z" style="fill:url(#_Radial6);fill-rule:nonzero;"/>
                        <path id="SvgjsPath4538" d="M89.465,81.193C79.848,75.432 72.764,75.065 61.348,75.799C70.877,74.298 81.852,75.387 89.465,81.193Z" style="fill:rgb(194,123,85);fill-rule:nonzero;"/>
                        <path id="SvgjsPath4539" d="M88.23,85.283C84.99,76.968 62.287,76.919 60.799,81.102L60.799,84.997C59.778,83.458 59.752,83.364 59.316,81.593L57.121,82.339C57.121,82.339 59.867,78.466 62.42,77.958C84.606,73.539 88.04,83.949 88.23,85.283ZM84.743,89.42C80.118,87.44 78.803,89.798 73.18,89.915C65.176,90.083 63.613,89.149 62.055,87.439C62.868,89.53 63.43,90.524 72.93,90.466C78.306,90.433 81.243,88.212 84.743,89.42Z" style="fill-rule:nonzero;"/>
                    </g>
                </g>
                <g id="svga-group-eyes-right">
                    <g id="svga-group-eyesback-right">
                        <path id="SvgjsPath4511" d="M116.529,89.125C119.822,88.341 121.498,90.184 126.338,90.291C134.395,90.468 136.276,89.673 137.537,87.653C138.06,86.816 138.56,85.725 138.801,85.052L138.901,80.903C137.573,76.954 119.36,76.551 113.001,82.687C112.714,83.353 112.568,83.974 112.536,84.554C112.726,85.512 113.048,86.432 113.483,87.303C114.189,88.113 115.245,88.729 116.529,89.125Z" style="fill:url(#_Radial7);fill-rule:nonzero;"/>
                    </g>
                    <g id="svga-group-eyesiriswrapper-right" transform="matrix(1,0,0,1,-0.25,0.25)">
                        <g id="svga-group-eyesiriscontrol-right">
                            <g id="svga-group-eyesiris-right">
                                <path id="SvgjsPath5189" d="M131.788,85.588C130.919,88.78 127.626,90.661 124.426,89.784C121.23,88.908 119.342,85.606 120.212,82.413C121.081,79.218 124.381,77.337 127.577,78.215C130.772,79.09 132.658,82.392 131.788,85.588Z" style="fill:rgb(62,68,66);fill-rule:nonzero;stroke:rgb(14,22,19);stroke-width:0.5px;"/>
                                <path id="SvgjsPath5190" d="M131.643,84.371C131.203,87.916 128.571,89.763 125.692,89.57C123.035,89.391 120.658,87.43 120.437,84.045C121.356,83.781 122.578,84.21 123.649,84.046C123.645,84.085 123.632,84.12 123.63,84.159C123.545,85.459 124.588,86.592 125.959,86.684C127.333,86.776 128.514,85.792 128.599,84.493C128.608,84.324 128.598,84.157 128.573,83.997C129.527,84.141 130.693,83.999 131.643,84.371Z" style="fill:rgb(83,83,83);fill-rule:nonzero;"/>
                                <path id="SvgjsPath5191" d="M126.867,81.998C125.548,81.621 124.201,82.374 123.86,83.689C123.519,84.997 124.313,86.367 125.631,86.745C126.953,87.124 128.3,86.37 128.642,85.061C128.986,83.745 128.188,82.376 126.867,81.998Z" style="fill-opacity:0.9;fill-rule:nonzero;"/>
                                <path id="SvgjsPath5192" d="M126.867,81.998C125.548,81.621 124.201,82.374 123.86,83.689C123.519,84.997 124.313,86.367 125.631,86.745C126.953,87.124 128.3,86.37 128.642,85.061C128.986,83.745 128.188,82.376 126.867,81.998Z" style="fill:none;fill-rule:nonzero;stroke:rgb(14,22,19);stroke-width:0.75px;"/>
                                <path id="SvgjsPath5193" d="M123.16,87.657C123.035,88.094 122.354,87.908 122.478,87.469C122.599,87.046 122.925,86.786 123.132,86.414C123.352,86.016 123.962,86.372 123.741,86.77C123.571,87.078 123.257,87.314 123.16,87.657ZM124.246,86.96C124.058,87.179 123.812,87.99 123.706,88.255C123.535,88.677 124.219,88.859 124.387,88.443C124.446,88.298 124.643,87.58 124.745,87.46C125.04,87.116 124.543,86.614 124.246,86.96ZM125.716,89.048C126.085,88.623 126.048,88.136 126.04,87.607C126.033,87.152 125.327,87.152 125.334,87.607C125.338,87.9 125.426,88.308 125.217,88.549C124.92,88.891 125.418,89.392 125.716,89.048ZM126.438,87.519C126.443,87.957 126.497,88.384 126.626,88.804C126.761,89.238 127.441,89.053 127.307,88.616C127.195,88.254 127.148,87.897 127.143,87.519C127.138,87.064 126.432,87.063 126.438,87.519Z" style="fill:white;fill-opacity:0.5;fill-rule:nonzero;"/>
                                <path id="SvgjsPath5194" d="M130.197,82.971C129.502,83.388 128.457,83.013 127.864,82.132C127.272,81.251 127.36,80.198 128.056,79.783C128.751,79.364 129.798,79.74 130.386,80.621C130.979,81.502 130.893,82.554 130.197,82.971Z" style="fill:white;fill-opacity:0.8;fill-rule:nonzero;"/>
                            </g>
                        </g>
                    </g>
                    <g id="svga-group-eyesfront-right">
                        <path id="SvgjsPath4549" d="M125.801,62.098C115.584,62.098 106.301,66.31 106.301,84.099C106.301,100.81 115.584,106.102 125.801,106.102C136.018,106.102 145.692,88.07 145.871,84.098C146.617,67.611 136.018,62.098 125.801,62.098ZM137.537,87.654C136.276,89.674 134.394,90.469 126.338,90.292C121.498,90.185 119.822,88.342 116.529,89.126C113.409,88.165 111.604,85.919 113,82.688C119.359,76.552 137.572,76.955 138.9,80.904L138.8,85.053C138.561,85.726 138.061,86.816 137.537,87.654Z" style="fill:rgb(240,199,177);fill-rule:nonzero;"/>
                        <path id="SvgjsPath4550" d="M122.943,68.699C113.55,68.659 105.927,74.732 105.904,82.265C105.879,89.8 113.476,95.935 122.865,95.978C132.256,96.015 139.879,89.945 139.902,82.412C139.928,74.878 132.336,68.743 122.943,68.699ZM137.537,87.654C136.276,89.674 134.394,90.469 126.338,90.292C121.498,90.185 119.822,88.342 116.529,89.126C113.409,88.165 111.604,85.919 113,82.688C119.359,76.552 137.572,76.955 138.9,80.904L138.8,85.053C138.561,85.726 138.061,86.816 137.537,87.654Z" style="fill:url(#_Radial8);fill-rule:nonzero;"/>
                        <path id="SvgjsPath4555" d="M137.537,87.654C138.06,86.817 138.56,85.726 138.801,85.053L138.901,80.904C137.573,76.955 119.36,76.552 113.001,82.688C111.605,85.919 113.41,88.165 116.53,89.126C119.823,88.342 121.499,90.185 126.339,90.292C134.395,90.469 136.276,89.673 137.537,87.654Z" style="fill:url(#_Radial9);fill-rule:nonzero;"/>
                        <path id="SvgjsPath4559" d="M110.136,81.193C119.753,75.432 126.837,75.065 138.253,75.799C128.724,74.298 117.749,75.387 110.136,81.193Z" style="fill:rgb(194,123,85);fill-rule:nonzero;"/>
                        <path id="SvgjsPath4560" d="M137.181,77.957C139.734,78.465 142.48,82.338 142.48,82.338L140.285,81.592C139.848,83.363 139.822,83.457 138.802,84.996L138.802,81.101C137.315,76.918 114.612,76.967 111.371,85.282C111.561,83.949 114.994,73.539 137.181,77.957ZM126.67,90.467C136.17,90.525 136.733,89.53 137.545,87.44C135.987,89.15 134.424,90.084 126.42,89.916C120.798,89.799 119.482,87.44 114.857,89.421C118.357,88.212 121.295,90.433 126.67,90.467Z" style="fill-rule:nonzero;"/>
                    </g>
                </g>
                <g id="svga-group-facehighlight-single">
                    <path id="SvgjsPath2882" d="M141,113.974C141.035,136.596 122.708,154.968 100.062,154.999C77.42,155.036 59.034,136.726 58.999,114.099C58.964,91.479 77.291,73.035 99.936,72.999C122.579,72.964 140.967,91.349 141,113.974Z" style="fill:url(#_Radial10);fill-rule:nonzero;"/>
                    <path id="SvgjsPath2886" d="M137.5,53.999C137.5,74.71 120.711,91.499 100.001,91.499C79.29,91.499 62.5,74.71 62.5,53.999C62.5,33.288 79.29,16.499 100.001,16.499C120.711,16.499 137.5,33.288 137.5,53.999Z" style="fill:url(#_Radial11);fill-rule:nonzero;"/>
                </g>
                <g id="svga-group-eyebrows-left" transform="matrix(0.982566,-0.185912,0.185912,0.982566,-12.0093,14.8528)">
                    <path id="SvgjsPath4585" d="M53.149,74.996C62.892,59.881 89.64,80.144 91.167,73.805C91.466,72.534 90.76,71.79 89.603,71.313C75.982,65.807 57.955,61.18 53.149,74.996Z" style="fill:rgb(42,35,43);fill-rule:nonzero;"/>
                </g>
                <g id="svga-group-eyebrows-right" transform="matrix(0.982566,0.185912,-0.185912,0.982566,15.496,-22.3295)">
                    <path id="SvgjsPath4586" d="M146.851,74.996C137.108,59.881 110.36,80.144 108.833,73.805C108.534,72.534 109.24,71.79 110.397,71.313C124.018,65.807 142.045,61.18 146.851,74.996Z" style="fill:rgb(42,35,43);fill-rule:nonzero;"/>
                </g>
                <g id="svga-group-nose-single">
                    <path id="SvgjsPath5130" d="M96.831,88.524C96.831,88.524 95.432,99.641 94.805,101.805C93.426,106.557 88.637,113.222 89.566,116.234C91.425,122.256 97.103,120.727 100.09,120.705C102.853,120.683 108.162,122.257 109.252,118.335C109.604,117.069 108.811,113.869 108.811,113.869C108.811,113.869 106.167,116.981 99.936,116.636C98.158,116.537 95.265,114.54 95.232,111.724C95.189,107.907 97.034,104.689 97.437,100.9C97.741,98.022 96.831,88.524 96.831,88.524Z" style="fill:rgb(225,172,143);fill-rule:nonzero;"/>
                    <path id="SvgjsPath5131" d="M105.194,118.969C106.269,118.969 106.56,119.295 106.56,119.698C106.56,120.102 106.225,120.724 105.194,120.428C104.06,120.105 102.081,120.253 102.081,120.253C102.081,120.253 104.117,118.969 105.194,118.969ZM94.922,118.969C93.845,118.97 93.556,119.297 93.556,119.702C93.555,120.105 93.879,120.685 94.922,120.431C96.072,120.149 98.034,120.256 98.034,120.256C98.034,120.256 95.999,118.973 94.922,118.969ZM108.81,113.869C108.81,113.869 110.299,115.802 109.99,117.844C109.689,119.827 106.68,120.705 106.68,120.705C106.68,120.705 108.769,119.189 109.022,117.349C109.14,116.486 108.81,113.869 108.81,113.869ZM90.427,111.883C90.427,111.883 89.341,114.587 89.655,116.235C90.226,119.211 93.359,120.399 93.359,120.399C93.359,120.399 91.404,118.36 90.709,116.557C89.948,114.587 90.427,111.883 90.427,111.883Z" style="fill:rgb(194,123,85);fill-rule:nonzero;"/>
                    <path id="SvgjsPath5132" d="M105.141,115.311C106.184,114.422 106.289,113.915 106.073,113.582C105.858,113.248 105.232,113.037 104.359,114.11C103.396,115.29 101.303,116.164 101.303,116.164C101.303,116.164 104.098,116.198 105.141,115.311Z" style="fill:rgb(255,228,214);fill-rule:nonzero;"/>
                </g>
                <g id="svga-group-beardwrap">
                    <g id="svga-group-beard-single">
                        <path id="SvgjsPath5196" d="M71.7,128.57C71.96,129.75 71.78,130.19 71.37,131.07C71.68,129.72 71.69,129.7 71.7,128.57ZM98.59,157.65C98.57,156.44 98.15,155.8 97.03,155.43C97.93,156.04 98.36,156.59 98.59,157.65ZM94.8,156.56C94.75,155.52 94.52,154.89 93.7,154.23C94.26,155.02 94.5,155.56 94.8,156.56ZM90.87,155.24C90.95,155.7 91.61,156.55 92.2,156.74C91.71,156.46 90.87,155.24 90.87,155.24ZM87.2,153.57C87.28,153.81 87.88,155.45 88.03,155.24C88.04,155.24 87.08,153.22 87.2,153.57ZM89.7,150.74C89.45,151.74 89.4,152.33 89.53,153.41C89.63,152.79 89.71,151.23 89.7,150.74ZM91.87,147.9C91.78,148.67 91.77,149.47 91.87,150.23C91.96,149.57 91.98,148.8 91.87,147.9ZM93.04,152.74C93.7,151.89 93.93,151.45 94.21,150.41C94,150.74 93.19,152.38 93.04,152.74ZM96.7,150.4C96.62,151.68 96.74,152.25 97.2,153.23C96.84,151.54 96.96,152.13 96.7,150.4ZM95.2,148.9C95.62,148.08 95.77,147.61 95.87,146.73C95.69,147.17 95.3,148.49 95.2,148.9ZM99.04,147.4C98.97,148.02 99.09,149.17 99.71,149.07C99.24,149.15 99.1,147.86 99.04,147.4ZM95.2,144.9C95.52,144.16 95.76,143.32 95.87,142.57C95.54,143.32 95.32,144.13 95.2,144.9ZM88.2,146.74C87.91,147.62 87.81,148.19 87.87,149.24C87.97,148.78 88.17,147.23 88.2,146.74ZM85.37,153.07C85.88,152.07 86.07,151.45 86.2,150.4C85.97,150.96 85.52,152.4 85.37,153.07ZM83.04,150.57C82.5,151.17 83.21,152.24 83.21,152.24C83.19,151.52 82.81,151.17 83.04,150.57ZM84.04,144.8C84.04,144.74 83.92,145.03 84.2,147.4C84.26,144.85 84.03,144.47 84.03,144.9C84.04,144.9 84.04,144.86 84.04,144.8ZM80.2,146.9C80.28,148.37 80.23,148.96 80.53,149.9C80.43,147.77 80.47,147.9 80.2,146.9ZM77.7,147.07C77.52,147.9 77.49,148.41 78.03,149.07C77.67,148.33 77.7,147.92 77.7,147.07ZM73.54,144.9C73.56,144.39 73.53,143.79 73.39,143.22C73.39,143.13 73.32,143.89 73.54,144.9ZM75.26,145.49L75.87,142.57C75.45,143.28 75.26,145.49 75.26,145.49ZM78.7,141.9C78.15,142.42 77.84,143.56 77.87,144.23C77.98,143.79 78.41,142.34 78.7,141.9ZM81.37,144.74C81.62,143.67 81.67,143.04 81.54,141.91C81.43,142.58 81.36,144.19 81.37,144.74ZM81.2,136.24C81,136.89 80.96,137.19 81.03,137.91C81.05,137.83 81.2,136.3 81.2,136.24ZM78.54,138.9C79,138.27 78.54,136.57 78.54,136.57C78.54,136.57 78.67,138.6 78.54,138.9ZM74.87,137.74C75.04,138.57 75.33,139.48 75.7,140.24C75.54,139.41 75.25,138.53 74.87,137.74ZM71.54,137.74C71.24,139.55 71.48,140.07 71.87,141.07C71.63,139.59 71.56,139.4 71.54,137.74ZM69.04,135.74C68.64,136.38 68.5,137.9 69.21,138.74C68.8,137.97 68.84,136.33 69.04,135.74ZM69.87,130.57C69.87,130.57 69.37,131.51 69.37,132.9C69.55,132.11 69.75,131.2 69.87,130.57ZM73.04,133.07C73.04,133.07 72.21,133.13 72.54,135.57C72.91,132.51 73.04,133.07 73.04,133.07ZM77.2,134.07C77.47,133.23 77.65,132.32 77.7,131.4C77.42,132.26 77.26,133.17 77.2,134.07ZM75.2,127.9C74.74,128.95 74.66,129.35 74.7,130.4L75.2,127.9ZM79.2,126.24C78.53,126.82 78.32,128.35 78.37,129.24C78.83,126.52 79.2,126.24 79.2,126.24ZM83.7,126.4C82.9,127.04 82.58,127.5 82.37,128.73C82.76,127.78 82.85,127.44 83.7,126.4ZM86.54,129.07C87.18,128.44 88.04,125.74 88.04,125.74C87.86,125.39 86.75,128.72 86.54,129.07ZM91.54,125.74C90.98,125.87 90.11,128.38 89.87,128.91C90.17,128.48 91.54,125.74 91.54,125.74ZM94.7,125.57C94.22,126.56 93.96,127.08 93.7,128.24C94.18,127.29 94.41,126.51 94.7,125.57ZM98.7,125.07C97.94,126.78 98.27,126.29 97.37,128.07C97.94,127.36 98.37,126.74 98.7,125.07ZM128.3,128.57C128.04,129.75 128.22,130.19 128.63,131.07C128.32,129.72 128.31,129.7 128.3,128.57ZM103.46,155.24C102.34,155.61 101.97,155.92 101.96,157.13C102.19,156.06 102.56,155.84 103.46,155.24ZM106.32,154.71C105.5,155.37 105.18,156.2 105.13,157.24C105.43,156.24 105.77,155.49 106.32,154.71ZM107.8,156.74C108.39,156.55 109.06,155.7 109.13,155.24C109.13,155.24 108.29,156.46 107.8,156.74ZM111.96,155.24C112.11,155.45 112.71,153.82 112.79,153.57C112.92,153.22 111.96,155.24 111.96,155.24ZM110.46,153.4C110.59,152.32 110.54,151.73 110.29,150.73C110.29,151.23 110.37,152.79 110.46,153.4ZM108.13,150.24C108.23,149.47 108.22,148.67 108.13,147.91C108.02,148.8 108.04,149.57 108.13,150.24ZM105.8,150.4C106.08,151.44 106.31,151.89 106.97,152.73C106.81,152.38 106,150.74 105.8,150.4ZM102.8,153.24C103.26,152.25 103.38,151.69 103.3,150.41C103.04,152.13 103.16,151.54 102.8,153.24ZM104.13,146.74C104.23,147.62 104.37,148.09 104.8,148.91C104.7,148.49 104.31,147.17 104.13,146.74ZM101.3,148.07C101.91,148.17 102.04,147.02 101.97,146.4C101.9,146.86 101.76,148.15 101.3,148.07ZM104.13,142.57C104.24,143.32 104.48,144.16 104.8,144.9C104.68,144.13 104.46,143.32 104.13,142.57ZM112.13,149.24C112.19,148.19 112.09,147.62 111.8,146.74C111.83,147.23 112.03,148.78 112.13,149.24ZM113.8,150.4C113.93,151.44 114.13,152.07 114.63,153.07C114.48,152.4 114.03,150.96 113.8,150.4ZM116.8,152.24C116.8,152.24 117.51,151.18 116.97,150.57C117.19,151.17 116.81,151.52 116.8,152.24ZM115.96,144.9C115.96,144.47 115.74,144.85 115.79,147.4C116.07,145.03 115.95,144.74 115.95,144.8C115.96,144.86 115.96,144.9 115.96,144.9ZM119.46,149.9C119.76,148.96 119.71,148.37 119.79,146.9C119.53,147.9 119.57,147.77 119.46,149.9ZM121.96,149.07C122.5,148.41 122.47,147.9 122.29,147.07C122.3,147.92 122.33,148.33 121.96,149.07ZM126.61,143.23C126.47,143.8 126.44,144.4 126.46,144.91C126.68,143.89 126.61,143.13 126.61,143.23ZM124.13,142.57L124.74,145.49C124.74,145.49 124.55,143.28 124.13,142.57ZM122.13,144.24C122.16,143.57 121.84,142.43 121.3,141.91C121.59,142.34 122.02,143.79 122.13,144.24ZM118.46,141.9C118.32,143.03 118.37,143.66 118.63,144.73C118.64,144.19 118.57,142.58 118.46,141.9ZM118.96,137.9C119.03,137.18 118.99,136.88 118.79,136.23C118.8,136.3 118.95,137.83 118.96,137.9ZM121.46,136.57C121.46,136.57 121,138.27 121.46,138.9C121.33,138.6 121.46,136.57 121.46,136.57ZM124.3,140.24C124.67,139.48 124.97,138.57 125.13,137.74C124.75,138.53 124.46,139.41 124.3,140.24ZM128.13,141.07C128.53,140.07 128.77,139.54 128.46,137.74C128.44,139.4 128.37,139.59 128.13,141.07ZM130.8,138.74C131.51,137.9 131.37,136.38 130.97,135.74C131.16,136.33 131.2,137.97 130.8,138.74ZM130.63,132.9C130.63,131.5 130.13,130.57 130.13,130.57C130.25,131.2 130.45,132.11 130.63,132.9ZM127.46,135.57C127.79,133.13 126.96,133.07 126.96,133.07C126.96,133.07 127.09,132.51 127.46,135.57ZM122.3,131.4C122.35,132.31 122.53,133.23 122.8,134.07C122.74,133.17 122.58,132.26 122.3,131.4ZM125.3,130.4C125.34,129.35 125.26,128.95 124.8,127.9L125.3,130.4ZM121.63,129.24C121.68,128.35 121.46,126.82 120.8,126.24C120.8,126.24 121.17,126.52 121.63,129.24ZM117.63,128.74C117.42,127.5 117.1,127.04 116.3,126.41C117.15,127.44 117.24,127.78 117.63,128.74ZM111.96,125.74C111.96,125.74 112.82,128.44 113.46,129.07C113.25,128.72 112.14,125.39 111.96,125.74ZM110.13,128.9C109.89,128.37 109.03,125.86 108.46,125.73C108.46,125.74 109.83,128.48 110.13,128.9ZM106.3,128.24C106.04,127.09 105.78,126.56 105.3,125.57C105.59,126.51 105.82,127.29 106.3,128.24ZM102.63,128.07C101.72,126.29 102.06,126.78 101.3,125.07C101.63,126.74 102.05,127.36 102.63,128.07ZM100.51,151.66C99.49,153.24 99.53,153.93 99.56,154.93C99.85,153.5 99.83,153.51 100.51,151.66ZM97.93,142.95C98.44,144.37 98.5,144.52 98.75,145.54C98.72,144.45 98.5,143.87 97.93,142.95ZM100.79,145.08C101.04,144.06 101.57,144.37 102.08,142.95C101.5,143.87 100.81,144 100.79,145.08Z" style="fill:rgb(42,35,43);fill-rule:nonzero;"/>
                    </g>
                </g>
                <g id="svga-group-hair-front">
                    <path id="SvgjsPath5270" d="M152.983,98.604C148.42,86.169 153.7,67.098 144.778,52.989C140.714,46.227 137.181,41.58 137.828,33.713L137.46,33.589C136.598,34.941 135.466,36.409 134.715,37.349C135.142,36.258 135.838,34.587 136.468,33.326L136.136,33.108C133.551,36.181 131.331,37.757 128.277,38.608C131.577,36.288 135.226,32.251 136.823,30.013L136.552,29.729C125.233,37.012 112.388,37.111 101.056,37.2C90.829,37.276 84.477,37.045 77.103,32.759C71.782,34.523 67.592,34.298 62.987,31.124C48.573,59.071 54.977,45.081 46.36,96.888C41.356,90.218 39.902,85.976 38.718,79.621C38.405,77.594 38.099,74.467 38.289,72.406L38.226,72.341C33.774,62.571 31.673,57.008 32.731,37.629C33.516,29.589 35.264,23.553 40.305,17.231C39.64,13.796 39.576,10.333 40.028,7.021C37.388,2.194 35.571,-2.774 34.863,-4.549C38.551,-1.726 38.856,-1.563 41.933,-0.592C42.637,-2.529 43.663,-4.453 44.32,-5.457C44.617,-3.219 44.853,-1.707 45.523,0.468C45.751,0.523 46.836,0.817 47.183,0.91C46.984,-0.414 46.802,-1.028 46.83,-2.215C47.401,-0.913 47.883,-0.611 49.54,1.411C51.374,1.796 50.934,1.739 51.484,1.739C48.815,-2.444 47.014,-6.146 46.557,-11.776C50.21,-9.695 55.321,-8.506 60.658,-8.506C73.197,-8.506 86.027,-17.918 103.827,-17.918C119.252,-17.918 132.598,-9.36 138.51,0.385C138.504,-2.129 138.397,-4.209 139.304,-6.793C139.304,-6.793 139.409,-3.088 139.409,-0.201L139.805,-0.164C140.425,-3.465 141.733,-6.279 143.893,-8.937C141.975,-3.779 142.705,-6.533 140.559,-0.235L140.907,-0.048C142.338,-1.887 143.51,-3.187 146.926,-4.91C144.458,-2.437 142.571,-1.02 141.404,0.729L141.705,0.988C143.161,-0.332 144.676,-0.832 146.217,0.375C143.736,-0.527 142.271,1.054 140.569,3.05C147.188,4.141 150.779,7.96 155.433,13.065C166.145,25.417 168.966,37.476 163.156,54.571C165.591,59.834 165.216,71.696 159.781,81.257C159.779,86.867 155.941,93.789 152.983,98.604Z" style="fill:rgb(42,35,43);fill-rule:nonzero;"/>
                    <path id="SvgjsPath5271" d="M62.299,30.371C62.658,30.705 63.017,31.039 63.373,31.375C63.244,31.29 63.115,31.211 62.985,31.122C48.571,59.069 54.975,45.079 46.358,96.886C41.354,90.216 39.9,85.974 38.716,79.619C38.403,77.592 38.097,74.465 38.287,72.404L38.224,72.339C33.772,62.569 31.671,57.006 32.729,37.627C33.514,29.587 35.262,23.551 40.303,17.229C39.649,13.851 39.583,10.447 40.01,7.185C40.607,8.059 41.233,8.91 41.873,9.75C42.304,12.374 42.669,14.933 42,17C32.461,46.478 38,60 44,81C41.536,65.069 36.858,44.815 49.619,33C44.168,46.096 45.673,52.034 47,61C47.917,49.082 52.195,37.996 62.299,30.371ZM155.432,13.06C155.056,12.648 154.69,12.248 154.326,11.853C153.944,12.108 153.552,12.342 153.167,12.59C168.123,43.251 153.761,40.307 157.184,53.999C161.183,63.999 156,70 156,80C156,65 155.319,54.561 147.04,42.825C144.244,38.862 143.459,25.402 141.575,18.751C118.373,33 84.002,35.981 47.916,7.183C64.916,13.183 99.565,8.533 111.459,0.867C97.901,3.328 69.597,3.475 56.869,-1.764C87.369,-4.134 87,-13.924 113,-15.764C100.5,-20.431 73.196,-8.51 60.658,-8.51C55.322,-8.51 50.211,-9.698 46.557,-11.78C47.014,-6.15 48.815,-2.447 51.484,1.735C50.933,1.735 51.374,1.792 49.54,1.407C47.882,-0.615 47.4,-0.918 46.83,-2.219C46.801,-1.032 46.984,-0.418 47.183,0.906C46.836,0.813 45.75,0.519 45.523,0.464C44.853,-1.711 44.617,-3.223 44.32,-5.461C43.664,-4.457 42.637,-2.533 41.933,-0.596C38.855,-1.567 38.551,-1.73 34.863,-4.553C35.571,-2.778 37.388,2.191 40.028,7.017C40.021,7.072 40.019,7.128 40.012,7.183C46.317,16.418 55.181,23.654 63.375,31.375C67.829,34.299 71.933,34.471 77.104,32.757C84.478,37.043 90.831,37.274 101.057,37.198C112.389,37.11 125.234,37.01 136.553,29.727L136.824,30.011C135.227,32.249 131.578,36.286 128.278,38.606C131.333,37.754 133.552,36.178 136.137,33.106L136.469,33.324C135.839,34.586 135.143,36.256 134.716,37.347C135.467,36.407 136.599,34.939 137.461,33.587L137.829,33.711C137.183,41.579 140.715,46.225 144.779,52.987C153.701,67.096 148.422,86.168 152.984,98.602C155.942,93.787 159.78,86.866 159.78,81.25C165.215,71.689 165.59,59.827 163.155,54.564C168.965,37.471 166.144,25.412 155.432,13.06ZM156.165,38.709C155.835,29.185 149.532,17.097 149.532,17.097C146.586,11.893 143.953,9.41 139.536,8.402C151.962,9.021 156.842,27.581 156.305,37.277C156.254,38.177 156.165,38.709 156.165,38.709ZM127.907,-1.507C131.19,1.156 131.974,1.916 135.203,6.402C118.55,-23.487 85.87,-0.868 75.536,-1.598C86.041,0.573 109.793,-14.79 127.907,-1.507ZM136.369,11.485C116.408,28.033 85.929,21.023 61,13.21C85.827,24.581 117.435,30.734 136.369,11.485ZM57.869,29.485C51.33,32.91 48.253,41.535 47.969,47.235C49.19,42.316 52.854,33.291 57.869,29.485ZM49.619,24.735C40.26,30.434 38.445,43.506 39.369,54.485C40.353,44.343 42.181,31.11 49.619,24.735ZM117.064,12.34C116.058,12.555 109.805,13.412 106.392,13.535C103.731,13.69 93.355,13.863 84.001,13.487C93.656,15.556 99.455,15.941 106.497,15.532C114.603,15.239 121.857,13.634 127.868,8.736C123.633,11.067 121.828,11.399 117.064,12.34ZM150.609,38.885C150.609,38.885 150.353,38.444 150.021,37.783C149.11,36.256 148.076,32.102 144.083,19.047C147.049,43.242 151.9,38.829 154.074,51.33C154.075,46.834 153.761,44.529 150.609,38.885Z" style="fill:rgb(27,20,28);fill-rule:nonzero;"/>
                    <path id="SvgjsPath5272" d="M157.853,68.131C158.217,64.885 158.07,66.373 158.11,64.521C158.416,58.277 154.684,53.042 156.956,45.534C158.81,40.081 159.881,39.226 159.069,29.733C158.95,28.363 158.595,24.959 157.967,23.735C158.823,25.224 159.389,27.98 159.692,29.669C161.379,39.212 159.96,40.661 158.171,45.936C155.781,53.906 160.368,57.422 157.853,68.131ZM141.575,18.751C142.692,49.121 148.851,42.067 154.292,60.503C150.598,38.757 147.181,56.786 141.575,18.751ZM48.369,34.235C39.179,45.798 40.107,54.134 42.369,71.235C42.165,53.925 40.055,47.355 48.369,34.235ZM41.772,17.714C36.498,34.033 35.343,41.398 37.875,58.999C37.406,41.353 37.518,37.458 41.772,17.714ZM61.952,30.641C52.322,37.56 47.295,50.217 47,61C48.482,50.695 54.012,37.697 61.952,30.641ZM128.855,24.594C116.804,29.031 97.188,30.219 82.867,25.916C71.706,22.661 54.279,11.723 44.905,4.845C53.403,11.61 68.376,21.652 78.831,25.621C89.694,29.68 106.718,31.188 119.912,27.866C129.16,25.542 133.953,23.346 141.575,18.752C138.182,20.612 133.184,23.242 128.855,24.594ZM102.813,-11.594C114.98,-13.879 129.322,-6.036 136.87,3.236C128.973,-8.082 116.033,-13.713 108.308,-13.847C95.629,-14.067 82.513,-3.204 56.869,-2.265C80.982,-1.203 92.573,-9.936 102.813,-11.594ZM112.369,1.235C95.08,7.378 81.729,8.848 63.562,9.815C82.325,10.97 95.739,9.15 112.369,1.235ZM130.536,4.738C119.874,9.765 115.206,10.589 93.199,11.929C106.996,12.486 119.885,11.769 130.536,4.738ZM95.248,20.023C105.892,21.26 124.537,19.918 133.869,10.235C122.599,19.729 101.75,19.389 85.489,18.743C91.713,19.714 90.59,19.552 95.248,20.023ZM140.869,10.735C148.498,13.544 150.358,26.928 153.369,37.735C152.022,28.156 149.721,12.813 140.869,10.735Z" style="fill:rgb(58,53,58);fill-rule:nonzero;"/>
                    <path id="SvgjsPath5273" d="M155.579,12.925C151.231,8.156 147.327,3.955 140.949,2.905C143.043,0.442 144.515,-0.474 147.199,1.055C145.609,-0.816 143.782,-1.171 141.569,0.835C142.84,-1.07 145.037,-2.625 147.869,-5.595C143.638,-3.61 142.366,-2.255 140.749,-0.175C143.034,-6.878 142.049,-3.303 144.469,-9.925C141.94,-7.089 140.323,-4.005 139.61,-0.205C139.61,-6.108 139.425,-5.345 139.54,-7.925C138.153,-4.836 138.311,-2.115 138.311,-0.335C136.078,-4.017 132.797,-7.135 129.26,-9.685C104.206,-27.974 79.221,-11.141 65.68,-9.105C60.191,-8.178 51.966,-8.767 46.33,-12.145C46.728,-6.381 48.513,-2.553 51.12,1.535C51.119,1.535 49.65,1.225 49.65,1.225C47.631,-1.209 47.436,-1.131 46.69,-3.105C46.499,-1.342 46.791,-0.365 46.94,0.635C46.442,0.505 45.983,0.367 45.68,0.295C44.937,-2.119 44.722,-3.955 44.45,-5.995C43.836,-5.21 42.528,-2.815 41.81,-0.845C38.811,-1.793 38.596,-1.944 34.38,-5.175C34.88,-4.175 36.689,1.286 39.82,7.055C39.35,10.589 39.492,14.115 40.09,17.175C35.065,23.487 33.32,29.521 32.53,37.615C31.489,56.674 33.397,62.226 38.06,72.435C38.07,72.445 38.07,72.465 38.08,72.475C37.903,74.446 38.199,77.577 38.52,79.655C39.699,85.987 41.145,90.348 46.43,97.305C46.45,97.325 46.46,97.355 46.48,97.375C49.875,77.007 49.525,76.508 50.25,71.485C53.822,45.773 53.667,49.613 63.06,31.415C66.873,34.043 71.095,34.967 77.08,32.975C81.422,35.499 85.856,37.425 98.14,37.425C110.311,37.273 124.316,37.837 136.66,29.895C134.79,32.517 130.542,37.049 127.2,39.075C130.679,38.339 133.175,36.938 136.29,33.235C135.333,35.15 134.207,38.049 134.12,38.395C134.27,38.215 136.27,35.825 137.63,33.695C136.977,41.64 140.524,46.292 144.61,53.095C153.566,67.258 148.121,86.616 152.94,99.055C156.03,94.059 159.98,86.969 159.98,81.305C165.19,72.219 165.936,60.194 163.37,54.555C168.587,38.924 167.533,26.708 155.579,12.925ZM46.789,-2.465C47.277,-1.076 47.384,-1.106 49.279,1.145C48.339,0.95 47.714,0.813 47.149,0.685C46.93,-0.371 46.789,-1.375 46.789,-2.465ZM44.279,-5.125C44.373,-3.593 44.738,-1.583 45.269,0.185C42.404,-0.552 43.469,-0.319 42.469,-0.615C43.292,-3.089 43.602,-3.715 44.279,-5.125ZM45.999,95.095C41.783,87.49 40.676,84.904 39.509,77.205C39.395,76.319 39.037,73.759 39.019,72.535C32.949,58.655 30.667,32.299 40.229,17.795L40.229,17.785C40.229,17.785 40.628,17.161 41.349,16.265C41.082,14.921 40.818,12.085 40.909,8.985C41.649,10.305 42.489,11.505 43.239,12.655C43.239,12.652 43.829,13.436 43.829,13.455C48.38,19.245 52.583,24.059 62.749,31.205C50.544,50.979 51.301,44.3 45.999,95.095ZM163.639,48.206C163.283,50.564 162.516,53.789 162.1,55.196C164.88,62.264 161.843,75.613 159.039,81.576C157.813,88.669 156.494,90.097 153.029,97.166C150.552,86.166 155.612,66.647 146.269,52.086C140.21,42.042 137.612,40.726 139.039,28.316C139.039,28.316 139.1,27.641 139.119,27.466C126.491,35.187 112.543,36.06 94.149,35.666C88.832,35.666 81.649,34.998 77.169,32.226C68.088,34.809 64.719,30.789 57.159,24.886C48.996,17.949 43.45,11.892 36.609,-2.384C40.452,0.734 48.146,2.305 52.999,3.116C49.726,-1.247 47.8,-5.233 46.929,-10.884C50.409,-8.564 58.749,-6.281 66.099,-7.094C79.633,-8.365 98.583,-22.261 121.869,-11.724C132.673,-6.957 138.155,-0.248 139.439,3.276C139.449,3.276 139.459,3.286 139.479,3.286C139.539,3.306 139.599,3.316 139.668,3.326C139.685,3.344 140,3.416 140.028,3.416C147.004,5.741 147.471,6.175 154.228,14.056C158.026,18.715 167.168,28.016 163.639,48.206Z" style="fill-rule:nonzero;"/>
                </g>
                <g id="svga-group-glasses-single">
                    <path id="SvgjsPath4626" d="M144.81,91.54C142.14,98.8 135.17,104 127,104C116.52,104 108,95.48 108,85C108,81.58 108.92,78.38 110.51,75.6C128.02,74.06 138.37,78.97 144.81,91.54ZM56.51,75.6C54.92,78.38 54,81.58 54,85C54,95.48 62.52,104 73,104C81.17,104 88.14,98.8 90.81,91.54C84.37,78.97 74.02,74.06 56.51,75.6Z" style="fill:white;fill-opacity:0.2;fill-rule:nonzero;"/>
                    <path id="SvgjsPath4627" d="M110.51,75.6C113.79,69.87 119.94,66 127,66C137.48,66 146,74.52 146,85C146,87.3 145.57,89.5 144.81,91.54C138.37,78.97 128.02,74.06 110.51,75.6ZM90.81,91.54C91.57,89.5 92,87.3 92,85C92,74.52 83.48,66 73,66C65.94,66 59.78,69.88 56.51,75.6C74.02,74.06 84.37,78.97 90.81,91.54Z" style="fill:white;fill-opacity:0.4;fill-rule:nonzero;"/>
                    <path id="SvgjsPath4628" d="M156.69,79.96L146.92,83.4C146.1,73.1 137.51,65 127,65C117.59,65 109.72,71.51 107.59,80.26C107.58,80.26 107.58,80.25 107.57,80.24C105.88,78.55 102.6,77.73 100,77.73C97.4,77.73 94.12,78.56 92.43,80.24C92.42,80.24 92.42,80.25 92.41,80.26C90.28,71.5 82.41,65 73,65C62.49,65 53.9,73.11 53.08,83.4L43.31,79.96L43.31,82.84L53.07,86.27C53.73,96.72 62.39,105 73,105C84.05,105 93,96.05 93,85C93,84.69 92.97,84.38 92.95,84.07L92.98,84.07C92.98,81.68 96.58,79.39 100,79.39C103.42,79.39 107.02,81.69 107.02,84.07L107.05,84.07C107.03,84.38 107,84.69 107,85C107,96.05 115.95,105 127,105C137.61,105 146.27,96.73 146.94,86.28L156.7,82.85L156.7,79.96L156.69,79.96ZM73,103.5C62.78,103.5 54.5,95.22 54.5,85C54.5,74.78 62.78,66.5 73,66.5C83.22,66.5 91.5,74.78 91.5,85C91.5,95.22 83.22,103.5 73,103.5ZM127,103.5C116.78,103.5 108.5,95.22 108.5,85C108.5,74.78 116.78,66.5 127,66.5C137.22,66.5 145.5,74.78 145.5,85C145.5,95.22 137.22,103.5 127,103.5Z" style="fill:rgb(38,18,11);fill-rule:nonzero;"/>
                </g>
            </g>
        </g>
    </g>
    <defs>
        <radialGradient id="_Radial1" cx="0" cy="0" r="1" gradientUnits="userSpaceOnUse" gradientTransform="matrix(250,0,0,250,100,225)"><stop offset="0" style="stop-color:rgb(254,255,252);stop-opacity:0"/><stop offset="1" style="stop-color:rgb(231,240,213);stop-opacity:1"/></radialGradient>
        <linearGradient id="_Linear2" x1="0" y1="0" x2="1" y2="0" gradientUnits="userSpaceOnUse" gradientTransform="matrix(2.44929e-15,-40,40,2.44929e-15,100,171)"><stop offset="0" style="stop-color:rgb(225,172,143);stop-opacity:0.8"/><stop offset="0.7" style="stop-color:rgb(194,123,85);stop-opacity:1"/><stop offset="1" style="stop-color:rgb(194,123,85);stop-opacity:1"/></linearGradient>
        <linearGradient id="_Linear3" x1="0" y1="0" x2="1" y2="0" gradientUnits="userSpaceOnUse" gradientTransform="matrix(1.83697e-16,-3,3,1.83697e-16,100,142)"><stop offset="0" style="stop-color:rgb(232,185,160);stop-opacity:1"/><stop offset="0.1" style="stop-color:rgb(232,185,160);stop-opacity:1"/><stop offset="1" style="stop-color:rgb(225,172,143);stop-opacity:1"/></linearGradient>
        <radialGradient id="_Radial4" cx="0" cy="0" r="1" gradientUnits="userSpaceOnUse" gradientTransform="matrix(-13.6001,0.005136,-0.005136,11.9643,73.6766,82.501)"><stop offset="0" style="stop-color:white;stop-opacity:1"/><stop offset="0.54" style="stop-color:rgb(253,254,254);stop-opacity:1"/><stop offset="0.74" style="stop-color:rgb(246,248,249);stop-opacity:1"/><stop offset="0.88" style="stop-color:rgb(234,239,242);stop-opacity:1"/><stop offset="0.99" style="stop-color:rgb(217,227,232);stop-opacity:1"/><stop offset="1" style="stop-color:rgb(216,226,231);stop-opacity:1"/></radialGradient>
        <radialGradient id="_Radial5" cx="0" cy="0" r="1" gradientUnits="userSpaceOnUse" gradientTransform="matrix(17.8944,0.327533,0.297107,-12.5966,76.7808,81.805)"><stop offset="0" style="stop-color:rgb(225,172,143);stop-opacity:1"/><stop offset="0.7" style="stop-color:rgb(225,172,143);stop-opacity:0.3"/><stop offset="1" style="stop-color:rgb(240,199,177);stop-opacity:0"/></radialGradient>
        <radialGradient id="_Radial6" cx="0" cy="0" r="1" gradientUnits="userSpaceOnUse" gradientTransform="matrix(25.4615,-1.15808,1.33678,22.1474,71.746,101.717)"><stop offset="0" style="stop-color:black;stop-opacity:0"/><stop offset="0.9" style="stop-color:black;stop-opacity:0"/><stop offset="1" style="stop-color:black;stop-opacity:0.2"/></radialGradient>
        <radialGradient id="_Radial7" cx="0" cy="0" r="1" gradientUnits="userSpaceOnUse" gradientTransform="matrix(13.6012,0.0051364,0.0051364,11.9652,125.923,82.5009)"><stop offset="0" style="stop-color:white;stop-opacity:1"/><stop offset="0.54" style="stop-color:rgb(253,254,254);stop-opacity:1"/><stop offset="0.74" style="stop-color:rgb(246,248,249);stop-opacity:1"/><stop offset="0.88" style="stop-color:rgb(234,239,242);stop-opacity:1"/><stop offset="0.99" style="stop-color:rgb(217,227,232);stop-opacity:1"/><stop offset="1" style="stop-color:rgb(216,226,231);stop-opacity:1"/></radialGradient>
        <radialGradient id="_Radial8" cx="0" cy="0" r="1" gradientUnits="userSpaceOnUse" gradientTransform="matrix(-17.8944,0.327533,-0.297107,-12.5966,122.82,81.805)"><stop offset="0" style="stop-color:rgb(225,172,143);stop-opacity:1"/><stop offset="0.7" style="stop-color:rgb(225,172,143);stop-opacity:0.3"/><stop offset="1" style="stop-color:rgb(240,199,177);stop-opacity:0"/></radialGradient>
        <radialGradient id="_Radial9" cx="0" cy="0" r="1" gradientUnits="userSpaceOnUse" gradientTransform="matrix(-25.4615,-1.15808,-1.33678,22.1474,127.855,101.717)"><stop offset="0" style="stop-color:black;stop-opacity:0"/><stop offset="0.9" style="stop-color:black;stop-opacity:0"/><stop offset="1" style="stop-color:black;stop-opacity:0.2"/></radialGradient>
        <radialGradient id="_Radial10" cx="0" cy="0" r="1" gradientUnits="userSpaceOnUse" gradientTransform="matrix(41,0,0,41,100,114)"><stop offset="0" style="stop-color:rgb(255,228,214);stop-opacity:0.5"/><stop offset="0.9" style="stop-color:rgb(240,199,177);stop-opacity:0"/><stop offset="1" style="stop-color:rgb(240,199,177);stop-opacity:0"/></radialGradient>
        <radialGradient id="_Radial11" cx="0" cy="0" r="1" gradientUnits="userSpaceOnUse" gradientTransform="matrix(37,0,0,37,100,54)"><stop offset="0" style="stop-color:rgb(255,228,214);stop-opacity:0.5"/><stop offset="0.9" style="stop-color:rgb(240,199,177);stop-opacity:0"/><stop offset="1" style="stop-color:rgb(240,199,177);stop-opacity:0"/></radialGradient>
    </defs>
</svg>
